<mxfile host="Electron" agent="Mozilla/5.0 (Windows NT 10.0; Win64; x64) AppleWebKit/537.36 (KHTML, like Gecko) draw.io/27.0.5 Chrome/134.0.6998.205 Electron/35.3.0 Safari/537.36" version="27.0.5">
  <diagram name="第 1 页" id="sto2WsEWiiZSBLNgEOx6">
    <mxGraphModel dx="2781" dy="1138" grid="1" gridSize="10" guides="1" tooltips="1" connect="1" arrows="1" fold="1" page="1" pageScale="1" pageWidth="827" pageHeight="1169" math="0" shadow="0">
      <root>
        <mxCell id="0" />
        <mxCell id="1" parent="0" />
        <mxCell id="cHkOREMolEhfn1Rwg13c-71" value="" style="rounded=0;whiteSpace=wrap;html=1;fillColor=#f5f5f5;fontColor=#333333;strokeColor=#666666;" vertex="1" parent="1">
          <mxGeometry x="760" y="200" width="320" height="220" as="geometry" />
        </mxCell>
        <mxCell id="cHkOREMolEhfn1Rwg13c-23" value="" style="rounded=0;whiteSpace=wrap;html=1;fillColor=none;" vertex="1" parent="1">
          <mxGeometry x="-40" y="345" width="320" height="400" as="geometry" />
        </mxCell>
        <mxCell id="cHkOREMolEhfn1Rwg13c-1" value="SpringBoot 生命周期过程" style="rounded=0;whiteSpace=wrap;html=1;fontSize=14;fontColor=#FF8000;fontStyle=1" vertex="1" parent="1">
          <mxGeometry x="-40" y="160" width="320" height="40" as="geometry" />
        </mxCell>
        <mxCell id="cHkOREMolEhfn1Rwg13c-2" value="SpringBoot完整项目启动流程" style="text;html=1;align=center;verticalAlign=middle;whiteSpace=wrap;rounded=0;fontSize=20;fontStyle=1" vertex="1" parent="1">
          <mxGeometry x="360" y="80" width="320" height="40" as="geometry" />
        </mxCell>
        <mxCell id="cHkOREMolEhfn1Rwg13c-3" value="" style="rounded=0;whiteSpace=wrap;html=1;fillColor=none;" vertex="1" parent="1">
          <mxGeometry x="-40" y="200" width="320" height="140" as="geometry" />
        </mxCell>
        <mxCell id="cHkOREMolEhfn1Rwg13c-13" value="" style="group" vertex="1" connectable="0" parent="1">
          <mxGeometry x="100" y="640" width="160" height="80" as="geometry" />
        </mxCell>
        <mxCell id="cHkOREMolEhfn1Rwg13c-14" value="ready" style="rounded=0;whiteSpace=wrap;html=1;fillColor=#6666FF;fontColor=#FFFFFF;" vertex="1" parent="cHkOREMolEhfn1Rwg13c-13">
          <mxGeometry width="160" height="20" as="geometry" />
        </mxCell>
        <mxCell id="cHkOREMolEhfn1Rwg13c-15" value="ioc刷新&lt;div&gt;runnder调用完成&lt;/div&gt;" style="rounded=0;whiteSpace=wrap;html=1;" vertex="1" parent="cHkOREMolEhfn1Rwg13c-13">
          <mxGeometry y="20" width="160" height="60" as="geometry" />
        </mxCell>
        <mxCell id="cHkOREMolEhfn1Rwg13c-19" value="" style="group" vertex="1" connectable="0" parent="1">
          <mxGeometry x="100" y="280" width="160" height="40" as="geometry" />
        </mxCell>
        <mxCell id="cHkOREMolEhfn1Rwg13c-6" value="environmentPrepared" style="rounded=0;whiteSpace=wrap;html=1;fillColor=#6666FF;fontColor=#FFFFFF;" vertex="1" parent="cHkOREMolEhfn1Rwg13c-19">
          <mxGeometry width="160" height="20" as="geometry" />
        </mxCell>
        <mxCell id="cHkOREMolEhfn1Rwg13c-7" value="环境准备完成" style="rounded=0;whiteSpace=wrap;html=1;" vertex="1" parent="cHkOREMolEhfn1Rwg13c-19">
          <mxGeometry y="20" width="160" height="20" as="geometry" />
        </mxCell>
        <mxCell id="cHkOREMolEhfn1Rwg13c-20" value="" style="group" vertex="1" connectable="0" parent="1">
          <mxGeometry x="100" y="220" width="160" height="40" as="geometry" />
        </mxCell>
        <mxCell id="cHkOREMolEhfn1Rwg13c-4" value="starting" style="rounded=0;whiteSpace=wrap;html=1;fillColor=#6666FF;fontColor=#FFFFFF;" vertex="1" parent="cHkOREMolEhfn1Rwg13c-20">
          <mxGeometry width="160" height="20" as="geometry" />
        </mxCell>
        <mxCell id="cHkOREMolEhfn1Rwg13c-5" value="启动" style="rounded=0;whiteSpace=wrap;html=1;" vertex="1" parent="cHkOREMolEhfn1Rwg13c-20">
          <mxGeometry y="20" width="160" height="20" as="geometry" />
        </mxCell>
        <mxCell id="cHkOREMolEhfn1Rwg13c-21" value="&lt;font style=&quot;font-size: 20px;&quot;&gt;引&lt;/font&gt;&lt;div&gt;&lt;span style=&quot;font-size: 20px;&quot;&gt;导&lt;/span&gt;&lt;/div&gt;" style="text;html=1;align=center;verticalAlign=middle;whiteSpace=wrap;rounded=0;fontStyle=1" vertex="1" parent="1">
          <mxGeometry x="-40" y="200" width="40" height="80" as="geometry" />
        </mxCell>
        <mxCell id="cHkOREMolEhfn1Rwg13c-22" value="BootstrapContext" style="text;html=1;align=center;verticalAlign=middle;whiteSpace=wrap;rounded=0;" vertex="1" parent="1">
          <mxGeometry x="-40" y="280" width="120" height="40" as="geometry" />
        </mxCell>
        <mxCell id="cHkOREMolEhfn1Rwg13c-24" value="" style="group" vertex="1" connectable="0" parent="1">
          <mxGeometry x="100" y="460" width="160" height="60" as="geometry" />
        </mxCell>
        <mxCell id="cHkOREMolEhfn1Rwg13c-25" value="contextLoaded" style="rounded=0;whiteSpace=wrap;html=1;fillColor=#6666FF;fontColor=#FFFFFF;" vertex="1" parent="cHkOREMolEhfn1Rwg13c-24">
          <mxGeometry width="160" height="20" as="geometry" />
        </mxCell>
        <mxCell id="cHkOREMolEhfn1Rwg13c-26" value="ico加载，尚未刷新" style="rounded=0;whiteSpace=wrap;html=1;" vertex="1" parent="cHkOREMolEhfn1Rwg13c-24">
          <mxGeometry y="20" width="160" height="40" as="geometry" />
        </mxCell>
        <mxCell id="cHkOREMolEhfn1Rwg13c-30" value="&lt;span style=&quot;font-size: 20px;&quot;&gt;启动&lt;/span&gt;" style="text;html=1;align=center;verticalAlign=middle;whiteSpace=wrap;rounded=0;fontStyle=1" vertex="1" parent="1">
          <mxGeometry x="-40" y="360" width="40" height="80" as="geometry" />
        </mxCell>
        <mxCell id="cHkOREMolEhfn1Rwg13c-31" value="ApplicationContext" style="text;html=1;align=center;verticalAlign=middle;whiteSpace=wrap;rounded=0;" vertex="1" parent="1">
          <mxGeometry x="-40" y="440" width="120" height="40" as="geometry" />
        </mxCell>
        <mxCell id="cHkOREMolEhfn1Rwg13c-28" value="contextPrepared" style="rounded=0;whiteSpace=wrap;html=1;fillColor=#6666FF;fontColor=#FFFFFF;" vertex="1" parent="1">
          <mxGeometry x="100" y="380" width="160" height="20" as="geometry" />
        </mxCell>
        <mxCell id="cHkOREMolEhfn1Rwg13c-29" value="ioc创建，准备完成，&lt;div&gt;主程序未加载&lt;/div&gt;" style="rounded=0;whiteSpace=wrap;html=1;" vertex="1" parent="1">
          <mxGeometry x="100" y="400" width="160" height="40" as="geometry" />
        </mxCell>
        <mxCell id="cHkOREMolEhfn1Rwg13c-17" value="started" style="rounded=0;whiteSpace=wrap;html=1;fillColor=#f8cecc;strokeColor=#b85450;" vertex="1" parent="1">
          <mxGeometry x="100" y="540" width="160" height="20" as="geometry" />
        </mxCell>
        <mxCell id="cHkOREMolEhfn1Rwg13c-68" style="edgeStyle=orthogonalEdgeStyle;rounded=0;orthogonalLoop=1;jettySize=auto;html=1;exitX=1;exitY=0.5;exitDx=0;exitDy=0;entryX=0;entryY=0.5;entryDx=0;entryDy=0;strokeColor=#97D077;" edge="1" parent="1" source="cHkOREMolEhfn1Rwg13c-18" target="cHkOREMolEhfn1Rwg13c-45">
          <mxGeometry relative="1" as="geometry" />
        </mxCell>
        <mxCell id="cHkOREMolEhfn1Rwg13c-69" style="edgeStyle=orthogonalEdgeStyle;rounded=0;orthogonalLoop=1;jettySize=auto;html=1;exitX=1;exitY=0.5;exitDx=0;exitDy=0;entryX=0;entryY=0.5;entryDx=0;entryDy=0;strokeColor=#FFD966;" edge="1" parent="1" source="cHkOREMolEhfn1Rwg13c-18" target="cHkOREMolEhfn1Rwg13c-58">
          <mxGeometry relative="1" as="geometry" />
        </mxCell>
        <mxCell id="cHkOREMolEhfn1Rwg13c-18" value="ioc刷新&lt;div&gt;runner 未调用&lt;/div&gt;" style="rounded=0;whiteSpace=wrap;html=1;" vertex="1" parent="1">
          <mxGeometry x="100" y="560" width="160" height="60" as="geometry" />
        </mxCell>
        <mxCell id="cHkOREMolEhfn1Rwg13c-35" value="" style="rounded=0;whiteSpace=wrap;html=1;fillColor=none;" vertex="1" parent="1">
          <mxGeometry x="-40" y="760" width="320" height="80" as="geometry" />
        </mxCell>
        <mxCell id="cHkOREMolEhfn1Rwg13c-36" value="" style="group;fillColor=#d5e8d4;strokeColor=#82b366;" vertex="1" connectable="0" parent="1">
          <mxGeometry x="100" y="780" width="160" height="40" as="geometry" />
        </mxCell>
        <mxCell id="cHkOREMolEhfn1Rwg13c-37" value="running" style="rounded=0;whiteSpace=wrap;html=1;fillColor=#d5e8d4;strokeColor=#82b366;" vertex="1" parent="cHkOREMolEhfn1Rwg13c-36">
          <mxGeometry width="160" height="20" as="geometry" />
        </mxCell>
        <mxCell id="cHkOREMolEhfn1Rwg13c-38" value="程序运行" style="rounded=0;whiteSpace=wrap;html=1;" vertex="1" parent="cHkOREMolEhfn1Rwg13c-36">
          <mxGeometry y="20" width="160" height="20" as="geometry" />
        </mxCell>
        <mxCell id="cHkOREMolEhfn1Rwg13c-42" value="&lt;span style=&quot;font-size: 20px;&quot;&gt;运行&lt;/span&gt;" style="text;html=1;align=center;verticalAlign=middle;whiteSpace=wrap;rounded=0;fontStyle=1" vertex="1" parent="1">
          <mxGeometry x="-40" y="760" width="40" height="80" as="geometry" />
        </mxCell>
        <mxCell id="cHkOREMolEhfn1Rwg13c-44" value="Spring容器刷新过程" style="rounded=0;whiteSpace=wrap;html=1;fontSize=14;fontColor=#FF8000;fontStyle=1" vertex="1" parent="1">
          <mxGeometry x="360" y="160" width="320" height="40" as="geometry" />
        </mxCell>
        <mxCell id="cHkOREMolEhfn1Rwg13c-45" value="" style="rounded=0;whiteSpace=wrap;html=1;fillColor=#97D077;" vertex="1" parent="1">
          <mxGeometry x="360" y="200" width="320" height="320" as="geometry" />
        </mxCell>
        <mxCell id="cHkOREMolEhfn1Rwg13c-52" value="&lt;span style=&quot;font-size: 20px;&quot;&gt;工厂&lt;/span&gt;" style="text;html=1;align=center;verticalAlign=middle;whiteSpace=wrap;rounded=0;fontStyle=1" vertex="1" parent="1">
          <mxGeometry x="360" y="200" width="40" height="80" as="geometry" />
        </mxCell>
        <mxCell id="cHkOREMolEhfn1Rwg13c-53" value="BeanFactory" style="text;html=1;align=center;verticalAlign=middle;whiteSpace=wrap;rounded=0;" vertex="1" parent="1">
          <mxGeometry x="360" y="280" width="90" height="40" as="geometry" />
        </mxCell>
        <mxCell id="cHkOREMolEhfn1Rwg13c-50" value="prepareRefresh&lt;div&gt;环境准备&lt;/div&gt;" style="rounded=0;whiteSpace=wrap;html=1;fillColor=#6666FF;fontColor=#FFFFFF;" vertex="1" parent="1">
          <mxGeometry x="480" y="220" width="180" height="40" as="geometry" />
        </mxCell>
        <mxCell id="cHkOREMolEhfn1Rwg13c-54" value="obtainFreshBeanFactory&lt;div&gt;获取工厂&lt;/div&gt;" style="rounded=0;whiteSpace=wrap;html=1;fillColor=#6666FF;fontColor=#FFFFFF;" vertex="1" parent="1">
          <mxGeometry x="480" y="280" width="180" height="40" as="geometry" />
        </mxCell>
        <mxCell id="cHkOREMolEhfn1Rwg13c-55" value="prepareBeanFactory&lt;div&gt;准备工厂&lt;/div&gt;" style="rounded=0;whiteSpace=wrap;html=1;fillColor=#6666FF;fontColor=#FFFFFF;" vertex="1" parent="1">
          <mxGeometry x="480" y="340" width="180" height="40" as="geometry" />
        </mxCell>
        <mxCell id="cHkOREMolEhfn1Rwg13c-56" value="postProcessBeanFactory&lt;div&gt;预留处理&lt;/div&gt;" style="rounded=0;whiteSpace=wrap;html=1;fillColor=#6666FF;fontColor=#FFFFFF;" vertex="1" parent="1">
          <mxGeometry x="480" y="400" width="180" height="40" as="geometry" />
        </mxCell>
        <mxCell id="cHkOREMolEhfn1Rwg13c-75" style="edgeStyle=orthogonalEdgeStyle;rounded=0;orthogonalLoop=1;jettySize=auto;html=1;exitX=1;exitY=0.5;exitDx=0;exitDy=0;entryX=0;entryY=0.5;entryDx=0;entryDy=0;" edge="1" parent="1" source="cHkOREMolEhfn1Rwg13c-57" target="cHkOREMolEhfn1Rwg13c-71">
          <mxGeometry relative="1" as="geometry" />
        </mxCell>
        <mxCell id="cHkOREMolEhfn1Rwg13c-76" style="edgeStyle=orthogonalEdgeStyle;rounded=0;orthogonalLoop=1;jettySize=auto;html=1;exitX=1;exitY=0.5;exitDx=0;exitDy=0;entryX=0;entryY=0.5;entryDx=0;entryDy=0;" edge="1" parent="1" source="cHkOREMolEhfn1Rwg13c-57" target="cHkOREMolEhfn1Rwg13c-74">
          <mxGeometry relative="1" as="geometry" />
        </mxCell>
        <mxCell id="cHkOREMolEhfn1Rwg13c-57" value="&lt;font style=&quot;color: rgb(255, 255, 255);&quot;&gt;invokeBeanFactoryPostProcessors&lt;/font&gt;&lt;div&gt;&lt;font style=&quot;color: rgb(255, 255, 255);&quot;&gt;工厂可扩展到后置处理机制&lt;/font&gt;&lt;/div&gt;" style="rounded=0;whiteSpace=wrap;html=1;fillColor=#FF8000;" vertex="1" parent="1">
          <mxGeometry x="400" y="460" width="260" height="40" as="geometry" />
        </mxCell>
        <mxCell id="cHkOREMolEhfn1Rwg13c-58" value="" style="rounded=0;whiteSpace=wrap;html=1;fillColor=#FFD966;strokeColor=#000000;" vertex="1" parent="1">
          <mxGeometry x="360" y="530" width="320" height="450" as="geometry" />
        </mxCell>
        <mxCell id="cHkOREMolEhfn1Rwg13c-59" value="&lt;span style=&quot;font-size: 20px;&quot;&gt;组件&lt;/span&gt;" style="text;html=1;align=center;verticalAlign=middle;whiteSpace=wrap;rounded=0;fontStyle=1" vertex="1" parent="1">
          <mxGeometry x="360" y="530" width="40" height="80" as="geometry" />
        </mxCell>
        <mxCell id="cHkOREMolEhfn1Rwg13c-60" value="Bean" style="text;html=1;align=center;verticalAlign=middle;whiteSpace=wrap;rounded=0;" vertex="1" parent="1">
          <mxGeometry x="360" y="610" width="60" height="40" as="geometry" />
        </mxCell>
        <mxCell id="cHkOREMolEhfn1Rwg13c-61" value="registerBeanPostProcessor&lt;div&gt;注册Bean后置处理器&lt;/div&gt;" style="rounded=0;whiteSpace=wrap;html=1;fillColor=#6666FF;fontColor=#FFFFFF;" vertex="1" parent="1">
          <mxGeometry x="480" y="550" width="180" height="40" as="geometry" />
        </mxCell>
        <mxCell id="cHkOREMolEhfn1Rwg13c-62" value="initMessageSource&lt;div&gt;初始化消息&lt;/div&gt;" style="rounded=0;whiteSpace=wrap;html=1;fillColor=#6666FF;fontColor=#FFFFFF;" vertex="1" parent="1">
          <mxGeometry x="480" y="610" width="180" height="40" as="geometry" />
        </mxCell>
        <mxCell id="cHkOREMolEhfn1Rwg13c-63" value="initApplicationEventMulticaster&lt;div&gt;初始化事件派发&lt;/div&gt;" style="rounded=0;whiteSpace=wrap;html=1;fillColor=#6666FF;fontColor=#FFFFFF;" vertex="1" parent="1">
          <mxGeometry x="480" y="670" width="180" height="40" as="geometry" />
        </mxCell>
        <mxCell id="cHkOREMolEhfn1Rwg13c-64" value="onFresh&lt;div&gt;预留接口，子类回调&lt;/div&gt;" style="rounded=0;whiteSpace=wrap;html=1;fillColor=#6666FF;fontColor=#FFFFFF;" vertex="1" parent="1">
          <mxGeometry x="480" y="730" width="180" height="40" as="geometry" />
        </mxCell>
        <mxCell id="cHkOREMolEhfn1Rwg13c-65" value="&lt;font color=&quot;#ffffff&quot;&gt;finishBeanFactoryInitialization&lt;/font&gt;&lt;div&gt;&lt;font color=&quot;#ffffff&quot;&gt;完成初始化（所有组件创建）&lt;/font&gt;&lt;/div&gt;" style="rounded=0;whiteSpace=wrap;html=1;fillColor=#FF8000;" vertex="1" parent="1">
          <mxGeometry x="480" y="860" width="180" height="40" as="geometry" />
        </mxCell>
        <mxCell id="cHkOREMolEhfn1Rwg13c-66" value="registerListeners&lt;div&gt;注册监听器&lt;/div&gt;" style="rounded=0;whiteSpace=wrap;html=1;fillColor=#6666FF;fontColor=#FFFFFF;" vertex="1" parent="1">
          <mxGeometry x="480" y="800" width="180" height="40" as="geometry" />
        </mxCell>
        <mxCell id="cHkOREMolEhfn1Rwg13c-67" value="finishRefesh&lt;div&gt;刷新完成&lt;/div&gt;" style="rounded=0;whiteSpace=wrap;html=1;fillColor=#6666FF;fontColor=#FFFFFF;" vertex="1" parent="1">
          <mxGeometry x="480" y="920" width="180" height="40" as="geometry" />
        </mxCell>
        <mxCell id="cHkOREMolEhfn1Rwg13c-70" value="自动配置生效" style="rounded=0;whiteSpace=wrap;html=1;fontSize=14;fontColor=#FF8000;fontStyle=1" vertex="1" parent="1">
          <mxGeometry x="760" y="160" width="320" height="40" as="geometry" />
        </mxCell>
        <mxCell id="cHkOREMolEhfn1Rwg13c-72" value="&lt;div&gt;@AutoConfigurationPackage&lt;/div&gt;&lt;div&gt;扫描主程序所在包&lt;/div&gt;" style="rounded=0;whiteSpace=wrap;html=1;fillColor=#6666FF;fontColor=#FFFFFF;" vertex="1" parent="1">
          <mxGeometry x="780" y="260" width="220" height="40" as="geometry" />
        </mxCell>
        <mxCell id="cHkOREMolEhfn1Rwg13c-73" value="@EnableAutoConfiguration" style="text;html=1;align=center;verticalAlign=middle;whiteSpace=wrap;rounded=0;" vertex="1" parent="1">
          <mxGeometry x="780" y="200" width="180" height="40" as="geometry" />
        </mxCell>
        <mxCell id="cHkOREMolEhfn1Rwg13c-74" value="&lt;div&gt;@Import&lt;/div&gt;&lt;div style=&quot;&quot;&gt;AutoConfigurationImportSelector&lt;/div&gt;&lt;div style=&quot;&quot;&gt;导入自动配置&lt;/div&gt;" style="rounded=0;whiteSpace=wrap;html=1;fillColor=#6666FF;fontColor=#FFFFFF;align=left;" vertex="1" parent="1">
          <mxGeometry x="780" y="320" width="220" height="70" as="geometry" />
        </mxCell>
        <mxCell id="cHkOREMolEhfn1Rwg13c-77" value="准备工厂的时候，加载自动配置类&lt;div&gt;扫描主程序以及子包&lt;/div&gt;" style="text;html=1;align=left;verticalAlign=middle;whiteSpace=wrap;rounded=0;" vertex="1" parent="1">
          <mxGeometry x="720" y="440" width="200" height="40" as="geometry" />
        </mxCell>
        <mxCell id="cHkOREMolEhfn1Rwg13c-78" value="" style="shape=image;verticalLabelPosition=bottom;labelBackgroundColor=default;verticalAlign=top;aspect=fixed;imageAspect=0;image=data:image/png,iVBORw0KGgoAAAANSUhEUgAAAv4AAAF+CAIAAAB1X4mrAAAgAElEQVR4Ae29i3ddxXn/ff4UVvt739W0a72tFkmFVmnaVdrfLyUhzbvaRCbkLY6cKg0BiomNqQBjsB0iGcTFOCa2CjYmYINs4ZtkfAP5Bja+IGxsfI7vNja2jKzb8R30rrk/e2bvffa57HPR/mpp2fvsmXnmmc/Mnud7ZubopK5cvY5fEAABEAABEAABEEgCgf6Lg6kktBNtBAEQAAEQAAEQAIErV6/HLn0OHT62cvXGrpXrxe/K1RvPnD0P9CAAAiAAAiAAAiBQEQLxSp9du/c/MPnJZ9p+/+zzC8Tv07NfnPZY6/HjZyrSWlQKAiAAAiAAAiCQcALxSp95ryx57fXO/ouD+vf8hYH5C/44reWZzJFTCUdfkea/OymVqp+z/8q1Imu/fGBOfYr91LcdLNJUNRRnWCatDvekVOjCa4kpNSbnYzIbE4QqMUufHQCskk6BG0kjEK/0efaFhZ0rerTuERfnLwws+J+l9z803fr9zbRZi17vHB657PbB/rbbeJj1j9ls+kilJq0sNpy79Y6zO5evHGytL4H0uXxlNVNQ40L0iC5mQ2j8Sp9S9bv7OCByu0zC79BnJ75+CfeBporJk7+Lua31QI4pVDqc+sW7fu+dtKTj1jAn48NDVU2gAtKn/+Lghf5Lu/d+9vGeA/R3y7bdLdPbVq7eSJ9Mcc2kT/1t9Smfh5M/b7fV10P6lG+cCeY5J0q3H6v2TmWljwiHtajd45M+MTGJyWz0gV1Vz87+ttv0qONvL30mWNo0+RY0TPrksECt4RoEKkggTPosW96TOXrSdS5z9OSy5T3uffeO76qPtQhEXy57Z83zL73q2uGP3C8m+b01Z0mTfsFSsOpTrj9ScHnlL1J+MtTtuFq5A+lTWE9B+uTLrWqfHbFmEzKLCtE2adJtqSDpw6YF/wWhfCkhPwjETSBM+nS/t+WZOX+w1E/m6Mln5vyh+70tUTyLIn2+GhgeuDTy1cBQ/8XBzhU9z76w0LUspM+77HyJ510Ffw93W+sBtv+iH1q1KiuWXeWj6M7R9I547OU6rToKI+1MWq3e66T0gx2+Uu2xRhy7cvW6qPRd7/4dnw1V5W2r2Z6U3+aLeMMq8unGylaokzcslZR1q9OtDmmd4B/kFbNgflh3uLX4doFsPuXJUbt4pQO0UapTtP8ij89L1fy8eoHZUQXZtd92nqyLeqWK+Djs7fcrV68H+UOaL+u1RleV9Ltoo/Vv2ZhY9UrgYgNXjkb5pAtcdDdWOnnlmota2qF96nYc396VlahxGNKhIU+WGFrSFJ/KtG/SE6YeVFVkKghpVOCsQhul3LaGFqUqxqeeWGgSayxHXd92kDP01zd8xvBPsqzhJQhUnECY9Lly9fqang+o+hG6Z03PBxH9Dpc+F78ayl42u8ujo1c6u9aFSZ8rLMrSSY09h5NWi3lBP7T7234h9mLoc2692aLPOU3yFFETq6hRRiAe7Wg2C4VQDNoZUZH2Wc59JGSK6VjndzMI+9bc926bPPYk8+upTcx3yr5rjd3hmWUTVIynrbty9Xq4V5SYnHm9ksu3C3ROyVNPzRIp069af9AqKG3vfV5EqWGRTZDMtxcYFu6G1XDaub6odc+G15gjlQdXPQY87fUeq6psv1Ma4rpsTNyq+Sj1e9K9xLQyEEf7rbmCBXWuNgx8PiytbjUvD8xp5avLIaXCnyxe0Lx/089j+ENnPf5Wo2QvqKdeNUrW4h1O/qf9ZB5iwQKu/eQPiL++Ec+OUm7mvahlCi9BoBoI5JA+VP3kq3uuXL0eJH0GLo1kL1+9cvX63iNX73hi6DtTBn/SNtw/eK1r5Xvh0odPHJ63d5NWXnOnM01W5xfPtp7C9AMs7uuJT72ZY7MGnTKEQV1K27cu3BlKzWjSZz5JmYnDzR80B1GtRiu1DIZXR2fMkNbl9Mpn+g5e6NZdQGsXTbCc19NraKeYFT7hRn29VMMckeg4lkf3taiL9p1Vr3Rs0mpu0C6oabultE2XGO2I8FT+lto0SlcnLqqq3y3fJDdv15eBieuGCvbsyXJp63HlonYzezuOCwVHEEQqpd6NUIPKTx/p49qkU4GbShtljcyQx8dCJ6vgasV6XmhO3adWW2ge65oXgfop3/lLiz9e5iSQW/po9fPMnD9EX+8RFftKn4tfDV25cm3plsvN80b+5bdDdz83/MGB69+ZMvjR51dOn/lyx85PXKf1syeeVfGUskAlFzDsyMHnAv32Q0oNZoQseEgjeu1BZ+cXXFHZE592w/VQ3PENVCJCi4UoOmGxeZDX7hFeYqnJZ7blzrCdGM/H3CyD1tzqpuo7dGIVzuvW5fSKtsgVNMIaq8j8EOVHmqadMQ6IDgruFC1T5Cwsts94KdO/DtVoWG5jn34L/tia5S216RKLnspyeld9BA3xrwlOle534wnrVhm8y8bEt3alvfQ4y1/6hA4V325l/RVeynmE9ZNFR4V5TMiYD5oKcksfMjyEexqKvqDG6RgT19xJH7FiPey0La4RescdGzQV1yBQWQKRpI9QP/nqnqBVn4GB4StXr//No4OPv5H9j3kj/zFv5KuRse9MGZz+x9GF72VPXzBbYBoNfd7YNXvOmRSQ8oVEDjFHmEM55OSdnrD4hZy79U1dl74IEQc6j3Xha43OHdZ04OZ3K6VViPxsLlMznWXQmlvdVH3HrUhDzukVbZErfUK6gNUeWfoEzdR0ADCFyuIQi3l6M9T1PxoWJn00WIpdXGt0OklzCK8xPJX5RgawNk4vhIWK9zt1SVxXkgmH5j7p4SrBQh3eNb6prL9qQfoEPT5uJ+o71uPJR6Z6x6UFlL4gD7K2QC/Uc+ozn9NsuAaBihCIKn0Kc8531Wfg0siVq2yZ54MD1+euvaKlz93PDd81a2jKayzV+tVR2cSJSebTBHQ609FIWKAF9YIBu6meW3ei1FWHiAOdx7rwtUZ9sEKFm1/c0e5Z9sVL3kb5/owZ9O440CrotSir74S0LqdXFmRtk7hnlvTt5ivyrmZiOcU7YB7VghZgeOC5rXWlVDyiIZNWrp6kliJc/62FesthPTBESAuCz0oFoA6vMTzVDOlcH1GseL+7o7GCTKxBqIeZO7Bpd4u+0LIgvGt8U3V/WeMzxAGdxMqyN2Pm6dC+uXWJO2I0hjdKG5EPYOjj43aivsPskMdT36cXtC30vnsdxZpbCndAoDwEqkj6CCXUPC+H9FFhzOxNiDlCTGc0PMhIRsKVmHesPwLEH2az0stK8effnW70Yy+T1NIL7SrbmvcQpTVJyaBrTYXqtK9n7jswZ5Lai6GzJzOo8quJ1bTFvzopL8K287hZ7wRt1+JNJShCuoCZJXOr5R5Dp+zYGFWn8MDDPJ806RfaFC94W70qq0eIiXBRekF0On9Dr+IN20jVtXAm5iVtZs4a7eZ4/bHCHh1dl6up3+k4F9dlY+JWTflbTzr3Su6ximx6XFmoC+g4MahCOjRk3lBPqP+zw932JtnDz79RrCAZ/D6NUo+PZ2gxhSQNWkXozGOR5w1XboiFN/VEvzvJOM+zmZeWEbwEgYoTiFf6uF9k0X9xMGjVJ7r04TOdea7Eg6rjnJiVmCCon7OfxRjzeMtH2jtN6MdeLuWq1JApjM4gbhfK2VaaM3666xyirIwfPP+klUaRWA6QbMammPXkp+WlBbPC7M6J+o5lXEEwrEh1KepV+PQtWhTUBcymmihdGqyUgq/8kRDpfZ2ke1xEPutdeF69QB3TwfLTywfoHxoQ6IJQKyzKYSJnBZMQf2jZ+raD1ugiHVHhfneHetmYuFXrYcCIe590CVB0xaTVwkn95S26I/SA0Xd4CQPZp+PI6A0qFf5k8VKmCss30tfOQ6c+cMqc9DbKMiLcNs8g2ca1hpaSjIKUefbdJmj+3KyWPmayYmOYekhmXV0WFyBQPQTilT7u15c++/yCPy5d6bvhFSJ9qodX3J6ETDq+VfvOer45i7mZr1fF1IWyUQig36NQquk8eOhquvvgfJUTiFf6XLl6/dDhYytXb+xauV7/9m7dSY853zVraO7aK9+ZIk893/eKz4ZXlUMsoXvifZhez8hpuUwh0O9cZ07fkCE+Auj3+NhWieV8p4IqcRtugEBNEIhd+gRREB9ub543Qn/ve2Xkw8+vBBUZl/f3t91mFt7F3jnZ9MnZ5JhCYJFe5XQbGYokgH4vEmAVFsdDV4WdApfGK4GKSZ/xCrSAdrEwpn/IYYIopmIKger8tXIrT6+ieI48xRBAvxdDr2rLFjMVVG2j4BgIVCEBSB/7g/RV2ElwCQRAAARAAARAoFQEIH0gfUAABEAABEAABBJEANInQZ1dKr0MOyAAAiAAAiBQuwSY9BnLZvALAiAAAiAAAiAAAkkgAOkD2QcCIAACIAACIJAgApA+CersJGh5tBEEQAAEQAAEwglA+kD6gAAIgAAIgAAIJIgApE+COjtcBSMVBEAABEAABJJAANIH0gcEQAAEQAAEQCBBBGpJ+owMHFnee2bB2rMhv8t7z4wMHEmCaEUbQQAEQAAEQAAECiBQM9JnZODIv/x24PszhybNHQn5/f7MoX/57QDUTwFDAUVAAARAAARAIAkEakb6dG05fefMoVMXvz53Kez31MWv75w51LXldBI6D20EARAAARAAARDIl0DNSJ8Fa89Omjuidc/r71/9zpTBf356WN/RF5PmjixYezZfENHzdzelUvUt6dF09CJRcsZkNkrVNZynr6WBf8VqQ+uGhAIc3dBeX7IBeeiduTPm91zgYzvouoZHC/52KwiAAAhwArUqfZ5fdeU7Uwb/euqgVjz6Il7pU9JIQ6NIQiN3Mc/haEdzKtXQuoFhjK1faB9FuWb9KH/q2vty6WPhdqqx21dJK2GnDKaauxyDJW24kTuje3vn+8ugKBCQBwRAAASqmUA5pE9n5/KT6V0uhZPpXZ2dy937vnesVZ89R2+0r7qyePPVxZuvtq+6sufojTJJn2JCdWjZGKUPlwg+UTPUH99e8NyMyWx0r5gyiCAvohssOme6tU5zTrfWpXK5x/OkUmHSp6wNNNLHiyLovmc8eItUb9Lo1s5ZcztzqtJaaQ78BAEQyJ9AOaTP+p41z8yZb6mfk+ldz8yZv75nTcQp0pI+Wuj89dTB70wZfH7VFX0n3lWf/BFHbCCkT0RQJltXY05tYTLH1nGBVfA1G62EfLJx6dbcVBcofVgDAxaE4mlOkMQJuu/TqHgcK2VFkD7V30fwEARiJlAO6TOWzfR0r6LqR+ienu5V0We0IOnzz08Pf2fK4OvvX40kffhChdg+0DFJag66udDUoR0Tqd3sHbw8UWE0ithraOpQ792dt+8sdMmfhtYOdiaDWNZViItwN1ge6mHK2fsISCW+MU/k9pA7quTOi/BWhVu6o8SL6LYHmg1wQzaW8PeclwoqFUyYeWJ+2NKI9k3WFQQ/uFFj2YwwQrvbJh/9mBdvlB5m0itNnjetoXUDJ6mA61RxEU36eBru249B7bKqy2aoxPG5Pt0zf9bcp2a//NTsl2e8s1W3SOQ8tGkRuy+OCvH9MplzVuchtZ1n5fzobbOnJqzRSsPsZzNjxJmnZr9sr+IEpF7gTgrHnpr98vxNe3UtuAABEEgOgTJJH6p+CtA9Y9mMJX0KOebsjXndrfKosgyiOqSJMKw0ikxVL3V0ZMecVZhRx03Y0RMtboQ40JHPtWMNMl83jFLhgVxbEzIoaipvuCnrBLyxbCbd2igPpohGCRpeYp62s+M1rL0esxGcND73tbSLkyshpUIJj7GCZj+IAVSdGAY/tFE+3URroXD8MJo+FTnJsDFJvKD2NkT6iFZogedBTWrXpgL7UUgfMjgtZ/RLqjysayNrlOzQuuHQO0wPUTF0YVNn72l+LMk5M+TJ2dc5Y9YimZONKP+tKNf+WF+nR+5woaP9yZEaUIuGgAsQAIFxT6B80kern2fmzM9rvUf0gSV9CjnmHPAunEc7z9tuGo3cVBNpnEBoCjrxVeqk8Fjo3d0Is8bEitooceuiqb4ahQROnyHOgj0H4lg2bXfNOpl5JNZO8g8iuc2PUkoJGo/BbCZQ+rg2qRBxUmmj7O7mBT2ag40io7dseqIirlaMyHNom76zesrJqe3zIl6hqTJT/3V+dqH7UUofzyD35FSmLLnj+bQXWbwZy2YubFo0Q91hpdS1j1mmb+TCj52TCyMqWXROascpxRSSKcWdN/5wZROYGiywaI24BgEQGN8Eyip9hPopQPe4qz6FHHPWYYmEUnslQ8QA8kbfjSvmDg2ovKAJaa7Mopm1JyxGyjhqzKo4ZEK7a40G/vBUH43CVYhcTDBRnDlgfvKXPuFu+KaqXTyPtqBNo9AswjQbTzIA3bqonZzShw4PbspQUVfMYb9OpJNFoFgho8sWc7rr/S5MA72p1n2fflQbXjn/IkOY9FEfepdtJAs2tJQmIJZqrD0vNyeTLGSPzJIswppdiq/x2Dtc2p/wVEgf7+DR/YULEEgUgXJLn4LhWqs++mRP3secdTBTEc6KHMxDEpzcVHOHBlQ+oUSVPn6zjzGrU7UbbiynToanutJH29cXXA2YE7WsXkgf/nU2vmw1t1wXrE+thS6PYFJKSvxv5XSMs9GlBi19jszICerHMksfvu5i1m+sVR9LQjGlwve89IXTcEgf2t24BgEQKJ5AzUuf/I4561mVRXe5fcAih3enycQSv5hhUkOkj7O0IE7G2IFQ++O3JUEqIn/ARhUxMsuty9pG4RnslRVlh40hrbH4TWLZ3qUyLrmKKtwNv1RWtd/9EAdMkuO28c21ye9I+E6vmYJud7umKLdc18xyFEHjHX5BT3WQNeN/UD+67QrwnIoM+1ptWgn37FQqaPQCDK/FbEV5j1HLZqo9L7P84/hG6+JjBhteCfqayaDHAfdBoBgCNSN9SvBFFn0tzeLP33mjJosc9AQoUUW+22Em0jhBlAZmbtbZTgoOhOFucMvkqIfXyfBUX3nhGTTUmlwVk+dCuFfqjAjPZhYeHFkQ7oabKtSYe1+rUveAFM9M/fESVosi4fBDGsWSlBGByHavr6UhqBMZEOWbVJ+qy6j28oZ2T4u82bqbTOt4NvXSzqZ8Du9Hb7s8A0C5REWGdW0dT6anjGlOZpaeQebbT3oFyM4p6u3rnDG/s3N+4N/acUuJD2qZPS9aIz+HRN3z+KM2vHx31nyZ4CYIgMD4I1Az0qckX1/KY57YXVBRRL0hlp9n5ol0gcSNheZOqPSRsknUxlaY7BUUazAJs0FusMxCeUiDxn9pJ1pq0NlbEeCZ7fqWNDOlQrhoo6i0qcO0XQQtVakxq+7wEqFOUgERVCqcMCtlqrB8Yy/Vjw0/uFGWEcHWwFF/4MDqO/NSCkdRsWLIwm1g73uljzcb9VP3iGON+mxc9fYjzWO8VYpH36Eiw70WH18Xx3eM7PBby9GfIWfneMI3vJQW0fJIO6MvqCf6phA06iwR+ZiYklP6E+yeD5F5UyGADE9nMCAJBMYxgZqRPmPZzMjAkeW9ZxasPRvyu7z3TL5f2x4xKhQ7CIKDX7GWMWflJDCu4bMBTHVkThrVlkF8AJ78oSA8ESAAAiAQK4Fakj4xgSiT9CnuwGxMbU+K2XEMn6s6s+pWbbImij/BB5yTMj6jUEIeEACB0hGA9JF/wDfn537znYXTrXUmIInDGREOW+RbC/L7EkgQfO+uny+NKr/J9rOw5FO6Ob3KuxvugUA1EID0iUv6WGd9antLogbnZbaYp39qej8oAL4+1kOPplXDnBLdB3EkSP/hxOgFkRMEQAAEiiEA6YOPiYIACIAACIAACCSIAKRPgjq7GI2MsiAAAiAAAiAwPghA+kD6gAAIgAAIgAAIJIgApE+COnt8qHW0AgRAAARAAASKIQDpA+kDAiAAAiAAAiCQIAKQPgnq7GI0MsqCAAiAAAiAwPggAOkD6QMCIAACIAACIJAgApA+Cers8aHW0QoQAAEQAAEQKIYApA+kDwiAAAiAAAiAQIIIJE76pA9s6169nP6eO767GPGIsiAAAiAAAiAAAjVEIFnSZ9/OTQ8+PKPtuVeee2GB+J39u5enPjrrVPqjGuozuAoCIAACIAACIFAwgWRJnwULFi5esqL/4qD+vdB/qeO1t6e1/PaLY7sKhoiCIAACIAACIAACtUIgWdLnhRfnda7o0bpHXJy/MDB/4Rv3PzTd+p3y6Kw331hyY+hzty/lN0cGfBO7+OJM/aWS+msm9ZdpNnel3Zsi1XzZO//SSpHNuun6I78qVfkjjVvf2Tm6ob0+pb9F1XVAO+xrHzdBAARAAARAYHwQgPRhK0DnLwzs23fw4z0H6O+WbbtbpretW7vC7WmmG+rrGlJ17X1pO7WvpSFV11Cf0kqCZ25Jjzo5xTdydzWmfO1kM2NcrDQ3NaaUprHrIt/pzfSWyqZljfaBFfSRPo3dQV4RyyGVIgkEQAAEQAAEao5ALUmfzs7lJ9M+21In07s6O5dHQe+76mMtAtGXy95ZM/flV1zLXFs0NjeZRRSdhyU1NTanSiF9mCpq7GZayljTFVkXtvSpb2yuT7HiWtxA+kDPgQAIgAAIgEA2U0vSZ33PmmfmzLfUz8n0rmfmzF/fs8aSAr4v85U+nSt6XnhxnmtKSB8uSrwLP6MdzWwJp6Mk0oepmaYOa7XGdUbccaRPS5prJr3DZdmRTdDCCA8DCIAACIAACCSDQC1Jn7Fspqd7FVU/Qvf0dK8KEgTW/RJLn9F0d1OKHsThSz4dY0wAmXUadlNtRVn+sJdBG15ksYfLFK/Gckanj/QZlSeK5LYXVn0caD7dgTwgAAIgAALjnUCNSR+qfvLVPWPZTMmlDxcualNJKx59wUcPFy76iLN3EypY+vBSyjKXQVRjuTHbV/rIlR6x7eUjfYK9Gu/j3gWIOyAAAiAAAgkhUHvSR6ufZ+bMj77eI7qz9NKH6wkpSrrUeWRX+uS76sMt2HtV+uCOEDFSt8jVIH/pk82M6W0vH+mjpBWEDgiAAAiAAAgkhkBNSh+hfvLVPbGs+mQzaj+LfXRcaqDipQ/bBfP58XxiyztGA6WP8JBtwLkfbof0SdAfbk/Imzk0EwRAAARyEqhV6ZOzYb4ZSr/qwz40zk/2NPFPY4lTw0VKH7E8Yy0U+d4k6idE+qhtL/aRe72S5NlQI3Z8ueEmCIAACIAACIwbApA+5i8704+1i+scn/BSH48Sp3nMWZwipQ854OwZZ0EHorlwCZM+etsrBemDZR4QAAEQAIGkE0iW9HG/yMKVO/TO4iUrFixY6NEfXGfYSyZMrJBPYLnSx9q8on9n2RE0TMToYz10PYab1cs2llc5pI/a9tLF7SbQinANAiAAAiAAAuOXQLKkj/v1pfp7TN2LtudeefDhGft2brJEBl6CAAiAAAiAAAjULoFkSZ+xbCZ9YFv36uURf9MHttVu18JzEAABEAABEAABl0DipI+LAHdAAARAAARAAASSQwDSJ+mnvZIz1tFSEAABEAABEBirre/wQoeBAAiAAAiAAAiAQJEEsOqDVR8QAAEQAAEQAIEEEYD0SVBnFymTURwEQAAEQAAExgEBSB9IHxAAARAAARAAgQQRgPRJUGePA6mOJoAACIAACIBAkQQgfSB9QAAEQAAEQAAEEkQA0idBnV2kTEZxEAABEAABEBgHBCB9IH1AAARAAARAAAQSRADSJ0GdPQ6kOpoAAiAAAiAAAkUSgPQpUPq43wV27vjuIjsDxUEABEAABEAABOImAOlTiPRxvwF+9u9envrorFPpj+LuMNgHARAAARAAARAohgCkTyHSZ8GChYuXrOi/OKh/L/Rf6njt7Wktv/3i2K5i+gNlQQAEQAAEQAAEYiUA6VOI9HnhxXmdK3q07hEX5y8MzF/4xv0PTbd+pzw66803ltwY+jyOjuxuSqXqW9Kj6TiMwyYIgAAIgAAIjD8CkD4lkz79FwfPXxjYt+/gx3sO0N8t23a3TG9bt3ZF6UfP6Ib2ekifQnqw9H2RhRsgAAIgAAK1QSBx0qezc/nJtM+e1Mn0rs7O5REjou+qj7UIRF8ue2fN3JdfiWgc2UAABEAABEAABOIjkDjps75nzTNz5lvq52R61zNz5q/vWRMRdL7Sp3NFzwsvzotoHNlAAARAAARAAATiI5A46TOWzfR0r6LqR+ienu5V0SmXRvqMdjSn5E9zlzysI8/u9LU0qKRUU4d2TKR2t9axRH7Ex5z1EZtfTR1pkcpyNHbTM0BdjdpkQ2sH2ykjlnUVuAABEAABEACB8U0gidKHqp8CdM9YNlMC6cN1T0PrBjG8ulvlUWUmZZSsYUlCAymNIlPVy7FsxpY+qZS0KXSVyin0kEdgpSB9amNPenxPQGgdCIAACJSfQEKlj1Y/z8yZn9d6j+ihEkgfrmm0FtEdz8WNZ7WGqxZ5x021pQ/5tJcp6JVZrC61RKTrxQUIgAAIgAAIJIRAcqWPUD8F6J4SrfrwD2fRBR7+ESEjZfQnhthGVV17H9sRc1PNHUfNGOnjyiwnc0KGO5oJAiAAAiAAAomWPgV3fwlWfYSy0Wd61GqNkTKQPpoALkAABEAABECgdAQgfQo58FEy6SM6kh9AFptfTPp4jydTMUSvhW4zd5yFHLPq47PhxU9Yq5NABUtAFAQBEAABEACBmiMA6VOI9HG/yIL+FR/3evGSFQsWLPQMjr6WZnXGecza0qIHkIkqKnzDS+yUqV0zaYfWUjop7WkjzIIACIAACIBA9RGA9ClE+rhfX/rcCwuCftuee+XBh2fs27nJkgV8gUd83lwe5dHiRn58nSfSo9BmjUeNJHMnZNWHZybVpZq7+EkjrPoojFbX4CUIgAAIgMA4JgDpU4j0Gctm0ge2da9eHvE3fWBbxDFkpEysUdnRSRHdQzYQAAEQAAEQqEStzAgAACAASURBVHUCkD4FSp+YOr5M0sf9zFesSgvGQQAEQAAEQKBqCED6JEL6pFvr9J9PHBN/7VB9piwmDQezIAACIAACIFCdBCB9EiF9zNFmcbgIp3yq5s1Hdc4L8AoEQAAExjEBSJ/qkj7jeKihaSAAAiAAAiBQDQQgfSB9QAAEQAAEQAAEEkQA0idBnV0NWhs+gAAIgAAIgEBlCUD6QPqAAAiAAAiAAAgkiACkT4I6u7IqG7WDAAiAAAiAQDUQgPSB9AEBEAABEAABEEgQAUifBHV2NWht+AACIAACIAAClSUA6QPpAwIgAAIgAAIgkCACkD610dkfH+murEZG7SAAAiAAAiAwPghA+tSA9NlztOfOV386PgYcWgECIAACIAAClSUA6VMD0mfi0vtuabv9yBdbKjtWUDsIgAAIgAAIjAMCkD7VLn3W7V/6refv+MGie+duaS/rgOPf7p5Kpcz3npbxe6/K9A32ZWxRWfsO7QIBEAABEAgmAOlT1dKn91DXXzz/j9uOb910ZOOPFv97+cIn/3b3ioge1sbRDe31qRS+Wz74uS3fSIAPIAACIDDuCED6VKn0OXF2+7TVLX8657tbjvUO3xzpv3zuT+Z8t79/d8liHhc3zV1pf4NsyaeuvS8gNedjEG48Z3FkAAEQAAEQAIHYCED6VIX0OXXuw2W7X312c+uUVdPuWzH5f3dMuKXt9ilrnzyf/WL45oj4rZt75+aDnf5KpYDxEa5OuhpTkD4FUEUREAABEACBqicA6VNh6XPq3Ie/XvHwLW23/2hJU1vv3CV733zv8LpPz+27dLVfix5x8eCqx+ZvfdFH+ojtoZT4aeweJUs16ryOSNNrPOnWOpmd/2dtbLFzNuaHr/2EVMEllMzOt6gCjQc4M5bNiJM93cIrbsQ+60PL0o0wUrtunQ+iqn8O4TMIgAAIgEDZCED6VFL6fH7q/W+//P2nN7ZevPKlJXQGTh0Zyn4lb94YHPzy5FvbF09e+Yg7MtKtjXJnyjoiw1ZuUkYQcPVgVE4+qz7hVRibfS3tYgfNNR7qjBRbTR26dR7pQ5egaBt5Lbr27taWNJV9kDsgAAIgAAIg4EcA0qdi0uf68KF/WPBvHbsWWaJHvPyyZ+2xX0++sH3Ll4Mnz3W+k7m3+f3tyyYuvU+LA/8LphL4wo9XFojMfD1GLQu56oSOD6o26P1sZsxUwQ8jE71iXLKM53KGSx/lGK/OSB+udYyAy2bGmIbja1FczHmSLFfxEgRAAARAAAQcApA+FZM+y/cu+rsFPx6+MeQvfdavy0yYyH4n/lJcvL+j896lvzLygvSlXDWR205cQ/jKAipoLHVCrLEqaE6eFLUKYccynssZI3SUG+YOL2v239QVUzx6G45ugSkLvqBwEwRAAARAAAQgfSomfR56d+riPX/01T3DN0fOd6+R0kcIoAkT335v/tTVj9pDlosMudJDl2RyqY0xS51YioFKn7yqiEf6hC3taG0EAWR1Il6CAAiAAAj4EYD0qZj0+fmyX7+XWedKn8GBs18sWHjkniZL+nz6s4kbX37ym6HPPeqHapRsxmxpcb2iz8GIIiaV/e2cjmZ6EsgaHNQsvc5VhfTNMp7LGbPGo9wwd/zKegiIIsxJcrBJ2fHJiSQQAAEQAIFkE4D0qZj0aVn7+LwPF1jSZ+jKwPGnZ1mix7y8++cXlyz0hHMa8uX6hzw0Iz5pZdZLaE4lfYw24gojpQ/uULlDC+aqQlbn6JVwZ4zQUU8jvWOX7WtpEH72tTS3bpA0qMPKiAcUboIACIAACIAAJwDpUzHps+3wym89f0f/5XNc/Qx/OXq69+gHk1c/8ZcvfW9n16vHHvyNUTx8z2vHf/3nlQO9bjgXyoCdgalvSTMFQM4Lc9Wijsc4f6JQpTIBJM7N+EofudLDzYRXoYvLrTdWxKgrVR035HGGCh3RQOuOaaNopvokF8smfzwGXUq4AwIgAAIgAAKCAKRPxaTPWDbzRM/0v5p754OrHvuLF/7pz5+/Y+bGOZ+c2zN8Y5Cd9dm43pI+w+ltGLUgAAIgAAIgAAJFEoD0qaT0Eernlrbbv/fqz17aPn/J3jeX7H3zj/veWrF/xfpXWzMTJh64595lv5wgNNC1ox8V2dkoDgIgAAIgAAIgAOlTYekzOrh/xroZTcvum7JqGv1d9OyDvY8+uHHrouylA1c+2XxyyrRr6R0YryAAAiAAAiAAAkUSgPSpsPQJ6r+vvzroSRo5/M0l7x2cVgMBEAABEAABEMifAKRPlUofj+7Jv19RHARAAARAAARAwJcApA+kDwiAAAiAAAiAQIIIQPokqLN9xS9uggAIgAAIgECiCDDp83X2FH5BAARAAARAAARAIAkEmPQ5fvIL/IIACIAACIAACIBADRE4febMVxdOfj16JN8lK0gfyD4QAAEQAAEQAIFaJXD69Jkbw0fzUj+QPrXa2TUkzOEqCIAACIAACMRH4OwXpyF9oGZAAARAAARAAAQSRODK4LHo6gerPrUxMlbt2RyfXoZlEAABEAABEKhpAkMXj0P61IagiTjO1ux9/x8X/CxiZmQDARAAARAAgaQRuNR/AtJnXEmfxtcfuKXt9t4Du5I2lNFeEAABEAABEIhCANJnXOme13d0/Vn7Hf/86sSne16O0v3IAwIgAAIgAAJJIwDpM36kz9sfdX+r/Z82prevPbT5n/9nYi0O5UV3p1K3zth84kyRzh/7YMatKfZz6xPbijRVDcUZlruXhHtSKnThtYybVDpCgK74bq0qniXv0JIbLB44LBRJANJnPEifbZ/t/fU70/90znfXH946fHPki5HzfzLnu3sPf1bk4Chz8WMntj1+awmkz7ETSyaMF9EjuoDNvJA+pftjqnSElGrUFf+wbH7i2+UR66L5/K0B+2fC4qLfaZAnruI8S+5AyQ0WP1RgoXgCkD61J312HNw374M3Hl/T/p/vPHbvW1P+/g8/vaXt9gdXPXV6+OzwzRHx+1cv3fnWR2uKHx+1aIG/Af324x8UO6FXT9srK31EpCw+QGqeJTeoLUe8qMIRIuLrhLvvyWvVswCSQmDR3lx0d7EPS2V5FgAh4jipqmwJaWbZmEP61JL02XFw38S3pt7SdvtdiyfN3DRv4c6l7x7YsOtUX3/2Ky16xMWvup747brfl20YVVVFxxbfk0oVO5tXVYsgfUrbHVU4QrhL9yziG7VUl4Q3PN9wGFPDYzIb3nadmi8EXbC2LhLSzLJ1CqRPzUifzX0f1b30g8fXzTk3esESOgOnjgwp9TN4fWjwy5OLPljyH2+3+A4jvSsvVrzpPCu2tBfxhXf97pPPa3J1/NYnlrA9Kb/NF/FkWjaFwc3q5A1LJWXd6mT+E2fkIvPdS8SbVG72nkXkDFCQV8yC+WECyK1FGpfZjFmWk9bITx0FOkAbpc4naf8FeZ+Xqvl59YJwzNj0286TdVGvVF2iYEiNx09+EZRKms94uWenfGGKwUAzaxRBBoMckM7zLRXZY4p2iNsh44d5Yn7MCNEnzIKGVkijjp/8QjTQfnZodxC3RaPov6z43Uu02zoppNJ8SQrjtFN0LfoiqBe0Y6RS+eCUjaf0QfadrJ34wxJE60RfmA6lvUA2+EIapYGIC2pQ9JSpN3iWkKVo7ZEfSVFWD6fXnxBnF2XjRTN9p1zLc7wMIgDpUxvSJ3P85N/O/8m87a9boke8/LJn7bFfT76wfcupi6fPdXZm7m1e1/tO4+sPuL0upnUtd8RMp2dD9rx51Yl4wnV+N4OowpqgFz0hjyrL/GrSlxOrev5da+wOz6ynOc9DrgqGe8XbaFZ93Fo2P3GP2A6TtSj3RE5Zo56weKVyllEO0CqoEe99duRIrz+JbIJkvr3AHONVWw2n/Subqdpi9Wx4jTlSuezQY4BWevzkF74wrfGglYGIRiKVGszhAFvGM6rr2AczHufHU0JKhY8fXtA7QhQ3izAdPOGNojnlQ0FWH+kgsQBqASeAcAeMb+GV5kVSDAmK3fKkynn6jjRGzxmfrC9UhxbcKAqHGhQdHWWWkENCeyKmFM8cYg5aWQ+sLKsyu820BoaecqnbuA4hAOlTG9LnD71v/e0ffjJ4fdhf+qxfl5kwMTNhYnriL8XFut7lP1lyv9Xx1tMiUvlUS9/AmVUQN7+cwckDKYwEzar8ATYGeaT8dirlXx0NkG6o0H7m9MonsKkaLSBsQmHxifij5inpjEpyfaMhhDefhSvhm0gSbtx6q4zZVh4tN3P2gqz67iViErcK6haFoHaJ0Y4IT3XnXF2je6FhujaZe4otpaTtW+0i3c0Pv7tDjhyt1Z7YpVSNtL2q04280L65btMB76bqgu5oEQV9B4n2Vl9ot5lvPEBqGuGV5keSWTat1rWLC7ciCi3keSwPT9tb8thaELyPqs8nHjTt8EbRGu2OJuOKJfnNEu6Q8PIMc8y3rNXMoCmXuo3rEAKQPrUhfX6x7L//8NFbvrpn+ObI+e41QvHof99Y+4dfdT5udbzv0yIitFgFoU+4noU907f4EJZPHOLxib0393w03TJozZJuqr5DQ45ohZmweGwI8Yq2iM6DlAaryPwQ6UOapp0xDvDWCYymtLoSLrFS3AhzWGyf8VLsJSlO/Y+G5dvs02/Bn9W3vKU2w/s9PJXZcd5VU5JqmlYUeBhw4yh1zzIY7oBvKvPKGQaeJjsDVY8fmk00RPvm2qTjMLxR2oiwKUxpKPrC6neNV28EyxpVNA2vNH+SwdKnunmantIovYgoWN0XbofS3qedK+zTQSLumHrVzMaMR5glfGcePTWFO+Zf1vsYqnFiT7nUbVyHEID0qQ3pM2HJAysPbnClz+DA2S8WLMzc06RFj7j49GcTV7Y/ffzYKdr3+T5vbn53snDts6mJThPqWuTUD7/v423mrODQldMrWoVbi4gW+o0az1yI9KFTLYWgJA7TghMWn+HeMvuL7qbLP2ahOzIWJn00WFqjuNbodJLm4BLzBIDQmKdjs297g2CWOmDbuJhXoW67A5VGNU3GQufapHbCG2Xxd03pfrEuuDMmnusrATy8UpGqu8a3Ut1Y1xT1JFdZe+2t3Dx54Pd9bC0I9JEvplEUDu1cdl0F0ke4JxpIp1zqNq5DCED61Ib0eWD5jPYtHZb0GboycOyp2ZboMS/v/vnRBYto3/vOfXQKo0+4jnl0pUFYoE8+tS+uxVQupmNmUL05E6m0CnptpdKQI5K0n24rLK/0XG/ZFC+tVG1WzpgRJjXXAWFZ2mch+duPL55xq1z/EBpoyQS11+Bb3HbDqxcZqLuXyGmOeEjrDUEdXmN4qh4GOr7SSoNgut1H+1rUqA2GO+Cbqr2ig9O7oVBQqHY20UTtYsCHN4o2MMg9ik6OFr+/ZSUr4mMgvNK8SMoR7n0etUu+nPWwdN3QSayx5FSTR3mUkKe3Ck/t3uWQcAeiDxJNhhqU1+QZtPqdOaYe3oIfSatGNVTYHpl+aqh7nL9/Es2Ga0oA0qc2pM/yXev+rP2OsyPnh2+ODN0YPjX4xXufb7n/3Sf/nxe/t63ztWMP/MYoHn7oZ+sDvzq2bSftaXHNpwzzkFjPjPUYyydQxWz1Ur7p8USFD2ZMUHsxdB7kD795kxSpuoAZn0523KxZuverxZuqJiM1TUsC6j1Tfqs+avYkGD+YcauaDUWQYH+gRd3hs+G3byU+FNIL3BpVP5S/1TVWM30cZoHE+B/ujxUUab20Q31gqigrsumQYBkswD0RAELcLixUK4zewUMO/vORJkeL1SiWRLrYp1FqkHgA+q1dqe6TboRUmi9JiYU80fyOrKiaeYaMNBcC7YvCGkX7SI4K1bnMuHq0rSTZ6TQnGTy0CT7Dw/tI0iaIqdtq5rGAKded83HHlwCkT21In+Mnv3io6+m/fOnOX3U98efP/9O32u94Yt1zH536ZPD6EDvrs3G9JX0+37XHt7/VrKqX1c0s7z7GwgKfeWX+CYvNm2krupBsxqZ4gOVHNLkN+q7Ffbz1Hcu4milk1FEhyscr1UDbB/1JV2WKl711xmY24+QtfTxGnH0oe7bl4c1an5CBU7bAeOvbCwyLmm11xN10fCv9QwPhqBUWWZ/+3JkeJCH+0LK3PrHN6hrRWGbXC1NmExXevUT3rKhRV6ex6Du8hAcIdYClKhT2fTuie3JyP6lqMVVYvrGX6ocOeFadWKQRqd5GWUZEMw0cMkgoQF6XGdWmO8T+jtC7wZVSAhFJ2kOXQKPWeBMNIuozaVpZeRqY3pFG3RYQrL4IGlohjbKSqEF2TUYgTZJsqfS5dUbQ7Efdtmj7TgI0v2mmHKimp/QQwkU4AUifmpE+Qv3c0nb7P3X8f3M++MPCnUsX7lz6P7ve/uOelWsXtmUmTDxwz71LfzlBaKBjuz8J7/jCUq0ZIacRa17Imb+wDPl6VVgtKJVAAhhape30RPEsz+xX2g5KjjVIn1qSPgePHnm4a/bdSx74z3ceo79/+N1DG6f+19J1fzx05Ojx3h2ZyY8e37k3jkEsNjXoyk14LeV5+PP1KtxnpIKAJoChpVGU5CJRPMsz+5WkXxJoBNKnlqRP4ABNH/ckHT99/MgJz51Cv/px8xPfNgvpYhFeLedGsR/Tw1+kV1E8R55kEsDQKm2/J5lnTLNfaTsosdYgfcaF9ClU2UQZ9+wB1j9kkztq2XykUhSbIk8xXkWvBTkTSABDq7SdnlierOHxzH6l7aBkWhsZODaWzUT87b84mEomJrQaBEAABEAABEBgHBA4ceqLmyNHIuqesWwG0gdLRCAAAiAAAiAAAjVMYPDiiei6B9Knhnt6HOh0NAEEQAAEQAAEiiFw4tQX+eoeKX3y0krIDAIgAAIgAAIgAAK1S4BteNWu9/AcBEAABEAABEAABPIiAOkT9UB4XliRGQRAAARAAARAoDoJQPpA+oAACIAACIAACCSIAKRP4Z09tHzJ8f/3Z1c/2VydqhZegQAIgAAIgAAIuAQgfQqUPkPLl2T+9geZv/n+0f/z43D18/GRbpc77oAACIAACIAACFSEAKRPIdJnaPmSI9+968snZ2T+5vvnn3oqRP3sOdpz56s/rUjXolIQAAEQAAEQAAGXAKRP3tJH6J6h5Usuf9iT+Zvvj42kQ9TPxKX33dJ2+5EvtrjocQcEQAAEQAAEQKD8BCB98pY+J386aWj5krFsRkqfbIapn9mzzs+aZfXfuv1L/9ezf3fbvB/O3dJuJeXxcnRDe30q1dThX8Sb2t2UStW3pEfTvpnDU32LRL8Zq3HhRhmqiN7eHDn7Whr4t6Q1tG6ouNsVdyAHq8hfu+Ox4x35nqTCDOpSwnLwc1TKunSluAABECgjAUifvKWPnviM9PHrsN5DXX/x/D++sPX3re+3/2jxv+tSeV+ET/E0NXzKDk/1a0JersYeX2P2P6/G5sg82tGcSjW0bmDZKu52xR0oemj50xbtCnpLUEyl45VYMUxQFgTGFwFIn9JLnxNnt09b3fKnc777XO/c4Zsj20/u+JM53+3v3+0/g+ccT+FTfEgqD8DNXf4rQAU6E+xt7NInuOqSt6VYg2zJp669r0zkbW/L2+927fl2U8Hehox86kPB9qkRXIMACIwvApA+xUqfU+c+XLb71Wc3t05ZNe3epb/6x4U/vqXt9h+9PnHrie3DN0eGb44M3hj68+f/YfPBzgKDRPgUH5Ja3kkf0sf0b1djCtIn4kRZ8CgNGfm06oLtUyO4BgEQGF8EIH0Klz4nNi7N/M33b2m7veH3P5z49gMPr3nsqY2/+59drx04v1+InuGbw9kbAyM3hn/w2s/mb33RhEYxhsTczU+EpFKN3fSADoud6qepxT7rE5yq9Ue6tU6VZ/+LzRedKj1R51FETrM+pIIKMULcC3DbNm49JzwCWRXJItQNsn8hUrtFQ/jBC1NFuIfZzBhB1NDaYQO0fGPbUmyLSv7QQx7Ut1QqCiLmpPlhaz/GbVFvkG/cB7lNxnPSguKa0pBbabIu2UGky1hCKfvdgcZcauowNXJu5qU1pClJRZhkNt76tkuOWIIuZT0XfsMyb/uqjZQ8HRtmAGQzY7RF0caGPQOo6nAfBECgzAQgfQqUPp+fev9ffvv9nXf+8OOzu5XQYWs85Hf45uUTY9nMN5ePPvDu1MkrH7G6Nt3aKPdExKyt4oEI23qSZbNwihxz5rN/UKo7ZeucY9mMJ9VrR8zjnuMpKnDKqV+JkiC3PcatOd0b1Ltb5UFs2TTdcBFLVEUyVb30+K/inHKYCxeVUwQ83XDXjtURArjRHH0t7WKXsFBE3KDZ8KJkwnzzUvK0V/QdHQbZTFBHiP7SzbfsWKMrer/b0JRLkpvWAaIXhJRUPeIBYo12npN6G9gub3dY3RpYKrp9MmhNl3k7RQ/dEmJ0weIOCIBA3AQgfQqRPteHD/3Dgn+7f+W0SzeGiNYxumfkxtC1a2fHspmnZs45d3z3xs/emb1+dlhfsmmdv3H3TrWsiAgVJKKYIG2lWuLGmfSDJnThGI/Kwgf+mTKtSFiUrbPXpUSc0G5bVZMowozzuEjDm6iRRy+ynuStyE0l/gd7GA7QcswBKBxj/7p2qHtW/KZJcs3JT/q4NkM717RX6gwPK+OqrFGllqHfOUbqnhRYZKXHpPI2enqfjQfFx/HWv13h6KxuJcPSFYL+9r0WjPO+Q9d1hg6A8LHhrcjjDJJAAATKRQDSpxDps3zvorqXvnd29Jyv7sneGPjm8tHzp/qGB87c/9D0Tz/ZffbEp75zHJthzQ8PXe5US6NjeKqlP5ygkmNCZwGDByRaIx+IlvTxcZtWLYrLdhGDKfuD98YfPdy1D9SgSjX5QzwMR+T65uYX1fne1+6FOBAifVyb1I4TUE17/WgotaEHUATp4zpAvaXOWP3uchMu6XUdx0M2ZoR65pVqL/WFFEPOKPVvl+u5463vsPSVPv451TDzrJPphpN3Av5SPuLYILX4zgm4CQIgUAYCkD6FSJ+H3p360OrHfHXPyI2hby4f7X1/w4MPz/h4z4H7H5r+4c5PJk+d+dqiP35DT/PwGd8spbB5sxakT5DbTuTzGbs6BKooQkO7zK/jh59Bk98Je0acRYiRHt/c/DUhfYI7wg32hptvYzXzEKp+AZuZjSx9PKs+1JolfYLa5XpOvQ0qpVbvTO0hOYlXhhgZDEy0ETFnbIo8hWL0jEbiA+6DAAjERwDSpxDp8/Nlv579/hxf6XPt6tkzR/c9+PCM9Ru29V8cvP+h6R/vOfDpgfSUabM/2Pye6Ug9UfLJzkRuPjV7t7TIQZbwVEsu8Mx0gjYTumvHXbEnUc24F+S2VXXIDM4syPPCzB+yReJ5t+1nkPhv/5lH46HbNH6HBmnTCyo0eoAL5107ERHRdRRuirhN/t4PqUX6RmO5VdClEdwRYdKnmEYJh8m/rF1kkJhm8jysR4RQ8KvUdAFPNaM0qF2uEX5HOhBUSvVvbvukXdY4NK7qoes6E31seCsyxnEfBECgjAQgfQqRPi1rH//liodd6bP//P6rI+llyzqffX5B/8XB/ouD059qP3joaP/Fwc4VPbN/95KZ6fQ0qo7CaBHAQog+CSFiHjnfmjtVramIEEiDOg1OXCuQjyxRf5wYbIQFzcbfiHvc1lVbI7ivpVn8fT+vLOBtIeGTGneDPb0T4qEkpo6SOABNFygnXRQiUrr3tWjzHMDidgwibxutOJq7+7QW5DT03+amfceaQFl5OyKWflesKD3mUhTpI2UBGWx9LQ26oCUjgtsVhi64lE0jKCcVUnSkBQzdwseGH0lKFdcgAAJlIADpU4j02XZ45f969u92nd45fHPkq2sDW45vfa537g8X3/tn7f9wc+Tw3HmvvrlslZA++t8dO/dNnjqT9qiYPeUqOpuR1VkNHa35sYjmLnuFg8cAeWTCSvUNkIEfcuZhQBoiYis8rge5bVftneKJz15RUt8iP7AtG2v+DKBr0NwJlT5SbaiGWYhoF5hrikJHZaUwlCXjeTgizweaaBzlTAiKlO2baJeor6nDtNcxMqb0BMtb35L2jh8hjErb74aV6lnmHmFFvZXuESlsho3eNlJ2LG9NTqddIehCSkWy7x1RtC2kUjIACh4butW4AAEQqBwBSJ9CpM9YNvNEz/RvPX/HDxb9+//93N//X8/9/U/f+uX/fLz4zMiZry8fe/PNt+fNf12LHnGxtnvzzN+SVZ/Kdbkbwyp1hwaYGH3wRrUYKyqgT6vZtwKaM16KsJFJVF11jZnxAhlUQaCCBCB9CpQ+Qv3c0nb7X7/8g+blkx9e89jDax57fP2sj4+9d+CTDx98eMa+vkNa/Zw6/eVjT85Z0bWygj1dhVWXSfq4J2SrJ3hUs2/VQ6nMnnA9SneKq/DZgUsgAALFEID0KVz6jA7un7FuRtOy+6asmqZ/F2yfO5bNvPHG25OnPr1seff2D/eu6X7/sSfn/Lb15etDh4vpqvFXNibpk26tM3FLnOEgOy+VxVjNvlWWTBXVznYPvXtbZdZeqA4EQCBmApA+hUuf8Ml6+9bNrc/+/uFHZs565qUVXSuhe1xcMUkf66xPte1csFbrH+yqxDzBuaMu5I4+MGQ+EVZN7oV4jiQQAIG8CED6xCV98uoGZAYBEAABEAABECgPAUgfSB8QAAEQAAEQAIEEEYD0SVBnl0dNoxYQAAEQAAEQqGYCkD6QPiAAAiAAAiAAAgkiAOmToM6uZg0O30AABEAABECgeALHDvbm/IX0gfQBARAAARAAARAYJwSOHew9ndkR8nvsYC+kzzjp7OKVMiyAAAiAAAiAQK0TgPSBrAEBEAABEAABEEgQAUifBHV2ret0+A8CIAACIAACxROA9IH0AQEQAAEQAAEQSBABSJ8YO/vapUPpA9si/l67dKh4JQsLIAACIAACIAAC4QQgfWKUOKWq5gAAIABJREFUPru2v3f/Q9Mj/u7a/l54VyEVBEAABEAABECgeAKQPjFKn+K7BxZAAARAAARAAARKSwDSp6qlD/+a6Mbu0bTV6z7fZz7a0ay/6zuV0l8rrb9oWieKJHnf+lbw0Q3t9SnP15h3NeqCqfqWtPIkyKzlJ16CAAiAAAiAQLURgPSJUfpcOLW3e/XyoN8Lp/bmHA0RpY8QIlrujGUz3U117X1MMLEkIll0jVq70FJjXulj197V2NC6QVgIMqvtswuuxjz2swG0o+cMsoD7IAACIAACIBCNAKRPQDCOhs8T6Z0ih/dvffHFeUG/h/dvDS8uhUsq16oPW5iRQsc1GKRR+P3G5vpUitqn0ofLEa11LMtBZj3Zogua6DkdyJ4akQoCIAACIAACuQhA+sQofYqPykxhUGmiutNseHGxEiRQcqz61Lek+1oaUmSHy5E+ns0vVXuIWd1k7rnZK2to3SDumEUgLndSTR1uTm0EFyAAAiAAAiBQcgKQPjUufbh2MXqCqBMxVpiwCNrw4vc9ioRKH7ZrxrWLdR6IVxFk1jNAnbUcS7EZXeXk9NhxGoVUEAABEAABECiYAKRPjNInfMPL2gjz3f/iuiR0w4tJn8DdLrVlZlZf9BqS0S5C7oi1Ja/08RT3CiAhmIhdHyd9zvpwiaNWgEgRSB/IOxAAARAAgXIRgPSJUfqEH3O2jj/7nnoujfQJXfVhqllveznSR2hqufxDNJZRTiEj1VfQiLqIKVaFb84Qy0gCARAAARAAgUIJQPrEKH0KXovTBXNLH7WOootYF0EaxbrPK0o1dzkfbtcDiy4OBX9wzFO7r6CB9NFIcQECIAACIFAJApA+NS595IkcsnnkHUaWxNHSxL4vlU1dg/V3fag19lEyWZFdnGbT16704bXIDS+6FuXm1EZwAQIgAAIgAAIlJQDpE6P0Cf8iiyjfXMEXY3xkjTkvzHaL+FIN3UJidyL8XR8qPvS2l/7AF5Mj5BSRqEWd+PGXPlzBWIeX6afPjNtea2LDi+bUEg0XIAACIAACIFBaApA+MUqf8K8vjfJ9pVz6kMPESpcYDaGEsDenkSze++YTW77aRWZW+kYoEl09lSb+Zi1Bk82MqT8G3dC6gR8YMo6ZA0aiCSRnaYc4rIEACIAACIAAJQDpE6P0oaBxDQIgAAIgAAIgUA0EIH0gfUAABEAABEAABBJEANInQZ1dDVobPoAACIAACIBAZQlA+kD6gAAIgAAIgAAIJIgApE+COruyKhu1gwAIgAAIgEA1EID0gfQBARAAARAAARBIEAFInwR1djVobfgAAiAAAiAAApUlAOkD6QMCIAACIAACIJAgApA+Cersyqps1A4CIAACIAAC1UAA0gfSBwRAAARAAARAIEEEIH0S1NnVoLXhAwiAAAiAAAhUlgCkD6QPCIAACIAACIBAgghA+iSosyurslE7CIAACIAACFQDAUifeKXP1YtH9qw807v4bMjvnpVnrl48Ug2jAT6AAAiAAAiAwLgnAOkTo/S5evHIy78YeOnnQ4sfHQn5fennQy//YgDqZ9w/bGggCIAACIBANRCA9IlR+uxddfrFiUOXL41dz4b9Xr409uLEob2rTlfDgIAPIAACIAACIDC+CUD6xCh9ehefXfzoyPXsWHbgm/4TX49c/IZqoOF+djM7wG4ufnSkd/FZd6ilW+tSqVSqviU9mnZTu5tYYnOXnSRKNbRusIpIa00dnvujG9rrUyl1k9lU1cn8rBL5I+oKus/MdjWqvGF2RJ5AD5UDHj+zGau9YW5kY+xWyyu8BAEQAAEQqC0CkD4xxkgtfT774PrMuwbfaBml0mfxtNGZdw0e7L2eQ/rU1zWk6tr7bH0z1tfSkKprqHekD5cyzU2NWsHoEam1gkct5ZA+jd2O6mJ2/NQJt0/ydzXa4oYJI7+2KKXCLUdtr12dMqLbiwsQAAEQAAEQcAlA+pRP+sz64eC59NdC/Zw9fHPWDwcjSZ9UY3OTWZXRXcgCf1Njs7vqw+RFYzcTRrYq4sKisbk+xTJoQVMq6TPa0ZxK2VrHkiNRpE/k9kL66MGACxAAARAAgegEIH3KJ30WPTK69uXLQvqsnXv59YirPlLHeBdLmM6oa+9jasOzhCN2hZo6xryCRgwILn1a0lwV6R0uK6ez4UVEktIx0o4WT+I+lz7GrMrsGYvRpA/XbbnbC+njYesLHDdBAARAAAQcApA+5ZM+fRuut/54aOTiN6NffdP2k6H9m9guWO4NL75C093kWVBhUZ/pG0f6kMUergw8AkJLFp6kNJNXJBUufdRZnDD1E1H6jKajtJe3wkeZQRCAAAiAAAiAQAgBSJ/ySZ/h/m/m/mL4w+XXdr57bV7z8ND5b6JLH358WIV5rXj0hZK0HjXAZRDdgdLSR670iG2vHNLHnFrW22RCOZEE5Vg2Y5LUuWnP4IssfaK019QlXTFueCpVcHATBEAABEAABMayGUif8kmfkYvfbF16dd4vh1/59ciOzqvDF/KRPlygSB3TpY4wW9KHvzSLLkLTkGM9RvpkM/yUND9ClEP6+OgJjx0/YSE+iuVzojm69InQXi59fNzDgw0CIAACIAACIQQgfcoqfYbOf/PMvw7+7sdDw/3f5Cd9xIIK+1wV+yy61ECW9GHCwudHHwayJAuXDqnmrvAPt/toC8uO//ByhBfLFl36RGgvpI8/eT8xipwgAAIgAAKaAKRPOaTPsT03Fk8bFX/CZ/NrV95//er17NjoV98snjZ6bM+NHB9u18s2Qug08Q9wiSPGVPoIqWF95tx705YsUp2wT8jrtaJizvroUSUvmNDxKqd8pI88yRTUXrm55rWPqA8CIAACIAACuQhA+pRD+tA/5+N7HfonDU10F+s05vgOlT7kgLNHghC1YUsfve2VKoX0Yc6QU9VCV1knfogz0kneBC28rIWcsPZC+uR6tj3DAJlBAARAAAQUAUifGKVP8V9kYUkB8WcMzZ83JNKHH68xIsmEPaItfKSPFBD5Sx9rY01IHFGXSjISTY02nw0vr0KK3t4xSB9NFRcgAAIgAAL5EID0iVH64OtLjQLLZ1CiFAiAAAiAAAjERwDSJ0bpM5bNXL14ZM/KM72Lz4b87ll5Bl/bHt8Qh2UQAAEQAAEQoAQgfeKVPpQ1rkEABEAABEAABCpOANIH0gcEQAAEQAAEQCBBBCB9EtTZFRfacAAEQAAEQAAEKk4A0gfSBwRAAARAAARAIEEEIH0S1NkVF9pwAARAAARAAAQqTgDSB9IHBEAABEAABEAgQQQgfRLU2RUX2nAABEAABEAABCpOANIH0gcEQAAEQAAEQCBBBCB9EtTZFRfacAAEQAAEQAAEKk4A0gfSBwRAAARAAARAIEEEIH0S1NkVF9pwAARAAARAAAQqTgDSB9IHBEAABEAABEAgQQQgfWLs7GuXDqUPbIv4e+3SoYoLYTgAAiAAAiAAAuOeAKRPjNJn1/b37n9oesTfXdvfG/ejDQ0EARAAARAAgYoTgPSJUfpUvHfhAAiAAAiAAAiAgEUA0qeqpU+6tS6VSqWaOjzdNrqhvd652dXIcqqfhtYNuog0opL0/yJPd1MqVd+SHk3r/GOjHc06UyrV3CWTXDs6yZTNVjVP+AkCIAACIAACkD4xhuoLp/Z2r14e9Hvh1N6c40+rDY/IsKSPeJmqa+9T8kVoF0vQZDNjTB6RbFymWNJH1Eir626SRViSa9PSOrxqWjywjdFzWlXgJQiAAAiAAAgUQQDSJ0bpc3j/1hdfnBf0e3j/1kBZoHqUq43G5vpUKtXYrRdmvNKHixWSKsoK9WMtF+WUPn4ZtJOQPhoFLkAABEAABGqXAKRPjNKn+GEh1UZfSwPd9qLSh0scur2lK/WRRH7Kxqz6cLO+poTNnNKH12i2yhpaN4g7ZhFICTI3p3YbFyAAAiAAAiAQKwFIn1qQPqNpj4ag0oepInsPS44YNylc+nCBZWSKWnnS44/5kP+GlyWtzLklbHg5hDVqXIAACIAACMRHANInRukTvuFlbYT57n8ZtSHkjtj2otLHT83I4eJKGb/MRpq4Uskbm62lGs8enM7pChq1LsWLk405N6c2ggsQAAEQAAEQiI0ApE+M0if8mLN1/Nn31LORPtnMGJcybNWESp8QveImFS998l/1YTpMeG6tTkH6xPZUx/dWCZZBAARAYBwQgPSJUfoUPz480iebEesuzV3kw+1qTcWty15lyfkJr2BTwrjljFsju+MraCB9oHJAAARAAASqhgCkTy1JH7nek6prIH/Xh+1Y0c9/ibHlq2PCV32yGX9TarAWKH34GpU88kwXjXxFkqrLX1chFQRAAARAAASKJgDpE6P0Cf8iiyjfXOGjNuQKCvmThvQYkBgQXFX4HEnOJX20tCJ/ImhDe33o3/URdelP0TuSy5wlovt0an0o5ANlUD8gAAIgAAIgEAcBSJ8YpU/415dG+b5SH+mjtr3MR6W43GE5yY//B7VySh8fU+bjY1YVrDbr4JEQXqwW9tPQuoEvIxkL5riSkzOOwQ2bIAACIAACIOASgPSJUfq4uHEHBEAABEAABECgsgQgfSB9QAAEQAAEQAAEEkQA0idBnV1ZlY3aQQAEQAAEQKAaCED6QPqAAAiAAAiAAAgkiACkT4I6uxq0NnwAARAAARAAgcoSgPSB9AEBEAABEAABEEgQAUifBHV2ZVU2agcBEAABEACBaiAA6QPpAwIgAAIgAAIgkCACkD4J6uxq0NrwAQRAAARAAAQqSwDSB9IHBEAABEAABEAgQQQgfRLU2ZVV2agdBEAABEAABKqBAKQPpA8IgAAIgAAIgECCCED6VEVnf3ykuxqEMHwAARAAARAAgXFPANKn8tJnz9GeO1/96bgfamggCIAACIAACFQDAUifykufiUvvu6Xt9iNfbKmGAQEfQAAEQAAEQGB8E4D0qbD0Wbd/6beev+MHi+6du6U9pqHW3ZRK1bekR9OltN/X0pBiPw2tG0ppNhupO2JpUbSqy99Y1AgCIAACIFBaApA+kWJtaaFra72Huv7i+X/cdnzrpiMbf7T43/X9Ul6MbmivL7X0Ge1orpDoYWTiaBF0DwiAAAiAQGIIQPpURvqcOLt92uqWP53z3S3HeodvjvRfPvcnc77b37+7lKInvkHMlnzq2vsKXUbiyqm5q9Di8bULlkEABEAABBJAANKnHNLn1LkPl+1+9dnNrVNWTbtvxeT/3THhlrbbp6x98nz2i+GbI+K3bu6dmw921ob06WpMQfokYHaojdGIjgABEACBPAlA+sQrfU6d+/DXKx6+pe32Hy1pauudu2Tvm+8dXvfpuX2XrvZr0SMuHlz12PytL9rBhi+Q8EM1Kb1MIk+6qNM2LLWpQxcUqd2tdew+P+JjTsaIraKmjrRIZTkau+kZIKZp5E9DawfbKSOWRRXMmvnhaz/CrLzpNUj8F86QqlkBc1SINidlGjuWzYS1SAx3WpaeaiK1a3oaFC5AAARAAASSSQDSJ0bp8/mp97/98vef3th68cqXltAZOHVkKPuVvHljcPDLk29tXzx55SOeUcgjtxYH3a3yqLIUHzrGi8CvNIpMVS+1dGDHnJVGkTaFMlA5hSjREsG1Y3zzrvqkWxvl5pd1CocLKe3/WF9Lu9jk4vXqiphZntPc4S3SBV1P2B3dfOoMdSCAnmlFnu8SUBAEQAAEQGB8EID0iUv6XB8+9A8L/q1j1yJL9IiXX/asPfbryRe2b/ly8OS5zncy9za/v33ZxKX3eUYVVwBGEKhQzaWAZ3GFqxZ5x001QoEqA27NFPQKBeaGyKyEkccxqjaUVzIDS+KehBS3pI9bdTZjHBOrPt7VKatFHkQMGl+LCqDnaYjlPF6CAAiAAAgkgACkT1zSZ/neRX+34MfDN4b8pc/6dZkJE9nvxF+Ki/d3dN679FeewCzUg9q30kkm8OsBSrSIm2ruOHLEKAxXKDiZtQN8kcZzzJlVYX649HENam8t6eObM2KLeFlTs7piYiiAnmmF9gcXIAACIAACSSIA6ROX9Hno3amL9/zRV/cM3xw5371GSh8hgCZMfPu9+VNXP+oTmHV0V1s8RsrokRpRKDhqpgTSh+sYc2ZIr/r4ChrhcKmlj2fVRzMRFw49H8JWEbwEARAAARAY1wQgfeKSPj9f9uv3Mutc6TM4cPaLBQuP3NNkSZ9PfzZx48tPfjP0uX9sZpJCHv7lSyyeDS8qhui1MGXuhEgfd9dJaJqcG15EdY3RjSrXoH6QLOnjl9NoMnXMmf5JRtKiaH9hiNDzx6t9wwUIgAAIgMB4JwDpE5f0aVn7+LwPF1jSZ+jKwPGnZ1mix7y8++cXlyw0sbmvpVn/rWSiMFjgp5/q8sZ1IwvU2DV3QqSPPFJjtrE8tVgyiDjjOaEsl1ikLOPyhXxWq6tRLs84WsfNqXWe55i22yIptkgtfS0NQq4F0DN4lTXcAQEQAAEQSBQBSJ+4pM+2wyu/9fwd/ZfPcfUz/OXo6d6jH0xe/cRfvvS9nV2vHnvwN0bx8D2vHf/1n1cO9FqDT+oPpnS8oqS+RX58nasguuNjhI4K7eZOqPSRIoMb5MqD/xloISOsglT6KPHBytW3pFkSWZHiskyapAtI6r7+GJeQUKpy09ic0kctNamialvQ2xyPQQsyXoIACIAACCSKAKRPXNJnLJt5omf6X82988FVj/3FC//058/fMXPjnE/O7Rm+McjO+mxcb0mf4fS2iCPPSBklbiIWzC+bJXdirQvGQQAEQAAEQKBcBCB9YpQ+Qv3c0nb791792Uvb5y/Z++aSvW/+cd9bK/avWP9qa2bCxAP33LvslxOEBrp29KOI0qRM0ifknHK5RmdEIMgGAiAAAiAAAtEJQPrEK31GB/fPWDejadl9U1ZNo7+Lnn2w99EHN25dlL104Monm09OmXYtvSNit8UkfdKtdWb7SRzuIZtHEX1DNhAAARAAARCocgKQPvFKn6Du//qrg56kkcPfXPLeCV5ZiUn6eA/H+HyFhcfhYPeQDQRAAARAAASqmQCkT2WkTzWPCfgGAiAAAiAAAuOYAKQPpA8IgAAIgAAIgECCCED6JKizx7GER9NAAARAAARAICIBSB9IHxAAARAAARAAgQQRgPRJUGdHlMPIBgIgAAIgAALjmACkD6QPCIAACIAACIBAgghA+iSos8exhEfTQAAEQAAEQCAiAUgfSB8QAAEQAAEQAIEEEYD0KWtnr13V+eKL8158cd6ale98M5qOqE+RDQRAAARAAARAoFQEIH3KJ332fLRh8pSn1q7qXLuqc/LUp3fv2FCqXoQdEAABEAABEACBiAQgfcokfa5dOvTk020rV7wtOmb1u+9Mn9F2deBQxH5CNhAAARAAARAAgZIQgPSJUfp8PZJesnix2OGaPqNtxtNtVwbkF3VdHTj01Mw5TzzZKlJfX7z46xHsf8XYFyV5WmAEBEAABEBgHBCA9Ikx3PZuWjOtZXb36uXdq5f3blw92n+AjpjR/gO9m9aI1Gktsz/YsJqmlvA6vq87LaGT5TPV19KQYj8NrRtAZmx0Q3s9vqo2g5FQvgcQ33wMAlVAANInLulzZeAgEzQbPYLmxtDnp9IfnUx/dH3oczrXbNm89pH/nq3XhGhSsdcittW3pHGqOpsZG+1o5qKHUQUZDaGpo9hhVgVzWeFNwEio6e6D8yCQPwFIn7ikz9D5T//rNzP27dykZ+TTR3bOeLrt/oemPzD5yRlPt53K7NRJn+za/F+/mZG96FkW0qnj54Irj+auym3tsSWfuva+yjmQ/yMaqfcLBhtx1adg+zG1t0iz46w5RdJAcRBIHgFIn7ikz1g2s3LFsukz2q4PsrPMN4cPz5g5Z9Grr10ZOHj10sFFr7024+m2G3zt5/rQ59Ofau1avjRSkKvpMVrxkNPVmIL0oUMI0ofSwDUIgEAyCED6xCh9rg4ceuS/Z/ft3jyWzZw4/OEDk5+8PPCZ0DdXLx188OEZxz//cCyb+eTjTVMfnXX1kjwB7RFAXCvwoykpvVgizyWoMysslWxYiNTu1jp2n+9zmXMMKs6lRSrL0dhNN8KYMpA/Da0dOU6BCGsyu7LDHW5oNZ/b17WTSlkZk4c2JGWaKTkQAqI58n5QqeA2Mk/MD1v70b5Jm0HND27UWFYeE6HAmTXqXuhuI/OhqcPA4ZnNS6uD/MySzASsb++ISY00M9XU4ullv1J521dTp8RLfQ4dqDY372AIt2aXJcxFQd1B63/HHw01EsQ4lMb1s0B9JqbEhqkoqp9HOXhUq/ESBECg+glA+lSB9Nm12V/6eCNud6s8r8OmaSVr2AgT07QKKjJVvdSxmZ31UYFNyg6hKlROEeH0hO7asUZzurVR7hwJsyJCeH321K6O2ugqmEEehs0d3hajiniqednX0i42y0JKhbaRV2c2vGjAC2t+aKN8QDH3VC0Ujl90FMVlG3XEFZ3i7SCP85ZZntNgzGb8e8cBbjkfWCq6fdJGaVxLh1wDNXwwhFsLgWO1kY06pzksj/YzqPt4KT0a9fNoPRd4CQIgUP0EIH1ilD5RN7wGD/lvePFQQeOZGE98KlerLDzS8LAt77ipZlq34iULkHVy4cc7rbOKRGYljHIMZRYtuAOOHVO7G3KczGMelwI+fBSllA5j1KAM/EqUqAUbLgrJ8WcRvGnznRppo2zgvKCn11g/mkotktSUVIpkpcekhpvlHnoqJRKEywL/3gnrZd2nbsdR45KqZ0AWMlAdyJ7BIDqLkPGkhsKxO8ivOZE4BzyPVofiJQiAQPUTgPSJS/oUcMx56MtPPSNGRF+6wMNDjpmmdQQi71PdVHNHGCRqxkgfd1qnmbUnbLnJRHFm2fz4B1dTuxty3EqpOvFNVatcdpjXBKjbnI9pIzVukXTronacqEwbRa9Z93FThoq6Yg77YWTFSY9Y1pjzQsaFmHXB6tap2qUwDW9mUKno9rkFPYattrD7upuo7hSlXN/C89PUUDg+bjhK0eQJMaW7jwhr3VhcgAAI1BABSJ+4pI/4cHvvpjV0NAR/uH3NI/89W58EokVMKFUTrpmmdaQJiSg0xtBwzssaWeAGHiezxysePMxRIeYApA8fSy5J3U1+F6w3I0sfW/Bpg1YsD+od1zfay0GlXOkTklO7RAeevhkyUF3fqLgJt+ZbVlXq87xYuKjxUFPsEeAZmKRUz6PnuVCV4iYIgEA1E4D0iUv6jGUzvZvWPPLfs6L8ScNHc/5JQxYz5BFgNpV7V/7p5E6vxcgzd2ic43O0kT48GOhzDKygCG8kKnvGMYlh7tZDYCy3Qo5bKd2f8kvVjnlc9ZSyt8lMG72h1HMOya2L35ENcbgZpDRqirDnmgoNh8wUgUwtS7AixIab5alGGAX2jruvx+5IB4JKqcGQ2763pawt0QeqXwNp34VZ8yurh6uFVA8h0xzaiaGmtE37WJK34SYb7oMACFQlAUifGKUP/SKLJ2a0ul9kMX1GW9gXWfS1NOuPSpGwxGOAClcynJsPRrkTvbnjhHAntDibWSQqeyZ05o+qVL4Plqc9uHvq5AfPZt4fO3GFO6DsOG1xU0W4cu8bZ0LbSDdcPNJHBD93L081P6RRBq96wm33+loalB0PQ56fFSepljVmSq0uhJm1wObonYBeDi7l+VOQVjfR3udu6OZwaKR11D5VG0Hc3PxapVk+SO1LBhJhbiFlXWDh8joTyDngeXT7FHdAAASqnACkT4zSh/Z9YV9fKoMHW173hqv6FvlhXX6Yw//9q4ooZuoPlwUy/MvjIc1d9vIJbY5a6eGZ61vSLEopuSNqEWaaOkztwh8ezzwfbld3eAnTTFkdTSUSQbztlr4SOO65XR7JlG/MmqnC8o3QTtnND26UZUS4LcKndE9pFwugeMmKk3ZZ1pgdUjzMrAIl1sNMTqt3Qns5pJQGHmbfO8BEW6IPVAZEtcIdDOHWPAPSuxtlIZW9oCoSzbHyGA6uKdmpZhT5dituggAIVDMBSJ8ySZ+xbGbPRxsmT3lq7arOtas6J099evcO88dv8hoi1jSdV9k8MnvDWB4FleSq7SIJb34pOrG0A7W01mp7cJaid0AABJJMANKnfNJnLJtZu6pT7HCtWfnON/rvp+U5kZUpBuQ875mn2zX2mCW8+aXo3NIO1NJaq7HRWIruQJNBAAQ0AUifskofzb2Yi5hiQLq1zpwdFoc2yFZLMQ7XRNmENz+OPirtQC2ttTjaC5sgAAK1QgDSB9LHEGDRRf+QAyi1MpqL9DPhzS+Snlu8tGKltNZcb3EHBEAgOQQgfUzgT06vo6UgAAIgAAIgkFgCkD6QPiAAAiAAAiAAAgkiAOmToM5OrMBHw0EABEAABEBAE4D0gfQBARAAARAAARBIEAFInwR1tha8uAABEAABEACBxBKA9IH0AQEQAAEQAAEQSBCBYwd7w2XfsYO9/RcHU+GZkAoCIAACIAACIAACNUHg2MHenL+QPgnSwjUxauEkCIAACIAACMRKANIH0gcEQAAEQAAEQCBBBCB9StDZ2XNH+3pO9S4+++Vnx7/87Hjv4rOfdJ/Onjsaq2iFcRAAARAAARAAgQIIQPoUK31O7j7R9pNLcxovLX6k/8iOk0d2nFz8SP+cxkttP7l0cveJAroERUAABEAABEAABOIjAOlTrPSZ/58XX/tN/7WvjtBOuvbVkdd+0//Kr76iN+O4rqUvP+Lfl55KpRpaN1Tc7Yo7EMdgGBvd0F6fSsXxBW3CcpK+8jaWDsKXtIMACFQHAUifoqTPzcEjM384uPvdM+5EufvdMzN/OHhz0COJ3GxF3amhgMS/Ll5+e3zF3a64AzE9/KJdkD4x4YVZEACB8UIA0qco6XN9IDPzrsFPuk+7Cqav59TMuwavDxRl3zVbq3fYkk9de1+6Mv5z4dVezAyHAAAP/ElEQVTcVaHa850sCvY2ovQp2H6+DUF+EAABEKhKApA+RUkTtupz1+C+NT7SZ9/a0zPvinnVpyqHlL+46WpMQfpE7K+CpQmkT0TCyAYCIJBsApA+RUmfIztOzrxr8PjHPseZT3x8YuZdg0d2nPSXAtnMGI9wKf6jFyTkGRR1LIYlkv0LkdrdWsfu84MX5syKCntpkcpyNHaPknUOJj7kT0NrR+5DIcQ9UZdsCPUtldKe64MmrgPMSfPD1n6M2+LxC/KN+yC3yXhOWlBcUxrSB1mXbD7xhyUIa9QOa1f+jfLtVma2qcPUyPvIvLR6hFaqjtGQzMZb33ZJBwi6VFOLp1vFkIhAI8y+mh89xMjYMAOgdBh92eImCIAACJSKAKRPgdKnr+fUoqkX2+8Z2LTwbFBnbFp4tv2egUVTL/b1nLLzeIN6d2tLmssUFmCUrGFFRHRU6kemqpdj2YwJSCrOqfM0Hc1ENomAqqOUa8d2jwdUozn6WtrFbhG/r+0I91SN/Iyt0hZS2GlXWUGz4WXczmbCfPNS8rRXtJ20cYyZapR7aoKG0hPCGeM25ZbNjBXcKCULND0BVgLRykZAEHLBF0gubwPb5fXc6tbAUtwTSiMwJ2mg6TJvp+ihW0KMmicuQAAEQCAOApA+BUqfw70n3376wpwJl9a/ci6oY9a/cm7OhEtvP33hcK+z9sPjIg0/wgiPXp7VGq4M5B03lQQkrjx0sJeSghf0xipWkYi1OgyTCBeW6trx1BLsgJQXftLHtUl9c1JNe6X08bDydASTBSqV26G0jR2nCi6h6mRZS5TQ9lrQ+EtjVr/UPlC9xc1Sf7iIVHwcb/3b5XpO0VnuhdLwt++1YJrmO3RdZyirPDF6/PG6gSQQAAEQKJ4ApE+B0kegP72P7Wod3+Wz4XWcb3id2uuTxMqKYEAXeHSwJPKF5WRBSwZFE35UPDB3nLBnNJMbq2hm7QlbbuIVuflFdb73tXvUJs9vHPC2wrN449qkdpyAatpLlYSiIS3LLR6y5eeICWPHdYB6S52xGuVyEy4RQWlq0WVF5/JKjZvqSoohx1v/drmeO94yB8xPoBD0t0+oerpMN5wOVNeZiBi9tRQ/o8ECCIAACOQkAOlTlPS5ORR8zHlNhGPOOgSqKGIFS9Z/Wlv4BXuT3wl7Rnm4YcnJ7Bkobn4Rn3zva/ccm8YBbys8cdS1Se3kJX14ZrPSwxwLDPaGm+sA9ZY6o+WLNuuEbWY2svTxrPpQU5b0CWqX6zn1NqiUOmRmag/JSbwyxMRNXjuTVUTMGZsiT8SxQWrxjEPcBwEQAIF4CED6FCV9blwqxYfbWYSQ54VZgPFGVhpy6LUIEuYODXt8rBjlwWObObijgh8N0p6Q4+YXg8/vPqnF/nt6JomKCW6KuM3OJAX65jTKFHSFoA60VvNVe2lgNnaKaZTAQv5lZqNIH79KTRfwVONtULtcI/yOdCColEsjJKfVNCXQjausLB+6rjPuhhch4xkbpBZjGTdBAARAIDYCkD4lkD4hH26/cSnAfl9Lc+sGOdGT2MNiJz26q0MLHwEmYKsBYe44KoFGF25WHSURooHWoqzpwMPLkk9vdTWKSOze16LNPT9EHaBrV55VH+lMoG/cc7V4w2noj5uZtgv/KSu5JqEKOoGZli28UQ43ZpYEeFqLPEKk1INdaV9Lgy5oeRvcLmZfbYaaTSthJ7iUOPRt5GZQTiqkqNAMGLp2i6jZ0MGpRx0uQAAEQKA8BCB9AqSJE9WC+mPupK/emn7h62HPX23+evjIm09cmDsp7IsseNwSBzG8gb++RX5gmyead/80/Cj3THDNFV1IdanmLnuFxqd1PHQJ/2g4Fx/kkfdJ3C1Y+piYLdvr9U20S9TX1GHa60dDRF+Wt74lzfxX0kcuO7EUEfKpHdZ22tjojVK9oOkxs1rBOB4y95T0UYepRcPUtpE2qPwR3oa0K6RbQ0rp9obZ944oSoxUaoZuCTFqnrgAARAAgTgIQPoUK33SW04+86+D7T8beH2a/PrS16f1t/9s4Jl/HUxvcT7YpWNbwAUNMHH0t7TpjWoxVhTQzLAaq9m3ApozXoqwkUlUXVgPjpcmo40gAALjlQCkT7HSZyybGTp1dPe7Z3oXn/3ys+Nffna8d/HZ3e+eGTp1tIBBUybp456QrZ5wVc2+VQ+lMnvC9ajZIytz7agOBEAABEpKANKnBNKnAIkTVCQm6ZNurTNxS5zhIDsvQc6U5341+1YeAjVQC9uA8+5tlXQaqgECaC8IgMA4IgDpkwjpY52nqbadCyb49A92VappftEHhuiZMygVEAABEKhpApA+1SV9anowwXkQAAEQAAEQqH4CkD6QPiAAAiAAAiAAAgkiAOmToM6ufiUOD0EABEAABEAgbgKQPpA+IAACIAACIAACCSIA6ZOgzo5bR8M+CIAACIAACFQ/AUgfSB8QAAEQAAEQAIEEEYD0SVBnV78Sh4cgAAIgAAIgEDcBSB9IHxAAARAAARAAgQQRgPRJUGfHraNhHwRAAARAAASqn0DipE/6wLbu1cvp77nju6u/n+AhCIAACIAACIBASQgkS/rs27npwYdntD33ynMvLBC/s3/38tRHZ51Kf1QSmjACAiAAAiAAAiBQ5QSSJX0WLFi4eMmK/ouD+vdC/6WO196e1vLbL47tqvKugnsgAAIgAAIgAALFE6gx6XNj6PP2FxZmPttRWMtfeHFe54oerXvExfkLA/MXvnH/Q9Ot3ymPznrzjSU3hj4vrK4KlirZ17/3tTTwbxU13/peTd+smS9hhiXXd6OWDF0tg8oDLBkhQJcHt4QMDzQTBKqVQI1Jn7Fs5v2NPbNbf1+Y+vGVPv0XB89fGNi37+DHew7Q3y3bdrdMb1u3dkWNzWijG9rrU6n6lvRouijPRzuaU6nxIXoEB0ifosaDO4XREVKqUefWgjsgAAIgUGoCtSd9ilE/QdLHWgfSL5e9s2buy6+UOGCUugvjco+9oa9r7ytOP1VTYyssfbhQaO4qHc+SG8y3s8bdCInrUcoXLPKDAAjETKAmpU/B6idf6dO5oueFF+cldELsakxB+pTw8Su5Uim5wXwbO+5GSEKf9Hz7HflBoPYJ1Kr0KUz9lFL6qFMO/DBMir6bF4ceulvrWJLeeGJxQv40tHawPSnfcyc8nol82qY8RUFrJGXd6mT+0fSY2IZo6kgLZ5jdxm66ERbgFbNgftjaj1uLNC6zGbMsJ62REwh0gDZKsTL+8wfM56VuPi2eytELwjER3ti133aerIua1XWJp50meWtklgNSSfP96/WHyQcD3XPUKAINBjgggzoZXWZkBrsdMn4EQDVGzAgx26wBQ2ssuFFj2YxooP3s0EapQQKZAgIgAAIFE4D0MZ/20vtc+iJw1YdP61qaiICnQ5SMCiRkikCl87sZZP95o0J3qzyvI/PrSV9EAmXftcbuiMxC+ugYLyKfKpjDK9ZGs+Hl1pJubZTbYd5zHiKnpKGDlqjU68AYrYIa8dxnR46MJzybJJlnLzDHuBtWw+nDI5vpRa17ljtMBBZvXdRU3nY9BmilY9mMP0zveNDKQMoL12AoEOG88bavpV3svoWUCh0/nu5TqkX4ZhH2DJ7QRnlyCq3pGQwlOsdW++9ZrfGDlyAAAnkRqFXpU9hh59Ks+jhzNw9ddXpBhU/fZhXEfZur30zbXcVDqRsdbYMsUgZXR4MQ1RN8ujcF3VaIzEoY+QQ2a8WIxg8Wn2STmbdaOghnVJIneFMRI0yx5nOxRYM6j3wN9erAtTePCeRW65x6ZdVNHbYCoK3wKxVGjHaEy5OmZjNiGLida4+BbIZ7yGE6Nj1sKSVlPxCI1bm61U4VnsEcMn6kn15xLAW3c0Ce1u7USBtlD/WQQaKbgAsQAAEQyJNATUqfwnTPWDZTGunjK1DIe1M6lbPA5uankYB2mLhPt8l4qm3QG3XcVHPHqcgE8pxekRZ5JAtxmFVkfoj00fqJ6jBekDkgAiR3wJRWV0IcMMt6hUZsn/FSVnFbSRCfDQTlML9T16DXwNR9Kj7cUkYCusRoR4SnKmliO0x8YFWbn/ylT7gDvqm+g5M2KmT80Gy8FQadWxe1k1P6EN1sbSBqPCEYaW/iGgRAAAR8CdSe9ClY99SA9BGBkEcONsurGGCCio6UuWM83yyjIYeXLZn04QFMr/SYhQqhdSJLn6AYpiQO2+BgeRgTpga6m+jyD9l7EmRyY2HSR4N1H4kw1G5Ep+E/PDVc+gTBDFUJ9jJSuAO+qTUifYIGidt9uAMCIAACUQjUmPSJ408a6pM97oX/WR8nIHn2CJx1Dr8NL35+hegDn65iUVyGdr4eINdURE4aoem1nRoifdxWiACsvSIywmfVx5tqFFV06eM6oIWdDMl17V1S8YgtwuaujmZ9/MivuO2G0o4GS1OHXEjQzaSVCufJ9pyn4eE1hqeGS58gmE73efqa12hkQbgDfqkMi999g9FxwCRR2ccZGt9cm/yOPNfv2DQFozw73v4SPYt/QQAEQCAvAjUmffJqm5vZ/SILV+7QO4uXrFiwYKFrhwcAsuRAZIonWKppmk3uOmbL+Ko+4UWjQl9Lc+sGWR0Jh7y4yi9DjqmdRg5R1txxwgwNXWFehQQ20SjaZL6ioFeAmFkiLIwzvCBzQCkSG2NfS4MuyD1vbmrUpnjBugZVVslNw0Ec4tFSwKpX9ouwLxwW15S/1TUOatthCkGe7An0xxYZtF5qx4WppRjPpunZBnM54DovWLn3teZ2D6XxzEqFM3/8zvpIjN6klBkVfOBRI2Ydzu012z06SNTz5T6huAMCIAACIQSSJX3cry/V32PqXrQ998qDD8/Yt3OTPz4Rh+TpAzPL+0ofeVMdVWju4h9UkaGXXOvQy3IamyIeyE/8ciM6wPtWZ+JHqPQJ8yqn9FGBlrlT35JmNGQwY7VrBSNaZOkV66XCYoK6Fklq3Yt1AdcE1jFeIXeUAUMsEIt2TMmIwyPr6R8aCEfN3Aju9+iprBXerhEB3oUps4kWNnWYniUC1PMp/ejuaRQhjfI6qeQmVS2GueUbe6l+PAOeLTXxMe/XKMuIePQMnNDNSpEZ/4IACIBATgLJkj5s7j6wrXv18oi/6QPbchIsJIMTUcKN+MaD8CKFpObpVSFV4G16MglgaCWz39FqEKhWAomTPlURsPkCBl25CfeqTNInT6/CfUYqCBgCGFrVGgBMH8FDEEgSAUifTBke/nRrndmpEYc8yKZPTgdikj5FepXTbWRILAEMrcR2PRoOAjVBANKnHNLHOlVDj8JEGSUxSZ8ivYriOfIklgAbtPqHnitK0jvLxPY+Gg4CVU4A0qdM0qfKxwHcAwEQAAEQAIGEEID0gfQBARAAARAAARBIEAFInwR1dkLkPJoJAiAAAiAAAiEEmPS5cvU6fkEABEAABEAABEAgCQT6Lw7+/xVCQp3yPIIZAAAAAElFTkSuQmCC;" vertex="1" parent="1">
          <mxGeometry x="800" y="520" width="641.68" height="320" as="geometry" />
        </mxCell>
        <mxCell id="cHkOREMolEhfn1Rwg13c-80" style="edgeStyle=orthogonalEdgeStyle;rounded=0;orthogonalLoop=1;jettySize=auto;html=1;exitX=0.75;exitY=1;exitDx=0;exitDy=0;entryX=0.226;entryY=0.003;entryDx=0;entryDy=0;entryPerimeter=0;" edge="1" parent="1" source="cHkOREMolEhfn1Rwg13c-74" target="cHkOREMolEhfn1Rwg13c-78">
          <mxGeometry relative="1" as="geometry" />
        </mxCell>
        <mxCell id="cHkOREMolEhfn1Rwg13c-81" value="@Configuration&lt;div&gt;@Component&lt;/div&gt;&lt;div&gt;@Bean&lt;/div&gt;&lt;div&gt;@Controller&lt;/div&gt;&lt;div&gt;@Service&lt;/div&gt;&lt;div&gt;@Repository&lt;/div&gt;&lt;div&gt;...&lt;/div&gt;&lt;div&gt;业务组件&lt;/div&gt;" style="rounded=0;whiteSpace=wrap;html=1;align=left;spacingLeft=6;" vertex="1" parent="1">
          <mxGeometry x="800" y="860" width="120" height="140" as="geometry" />
        </mxCell>
        <mxCell id="cHkOREMolEhfn1Rwg13c-83" value="所有的组件&lt;div&gt;在这里被创建&lt;/div&gt;" style="text;html=1;align=left;verticalAlign=middle;whiteSpace=wrap;rounded=0;" vertex="1" parent="1">
          <mxGeometry x="690" y="880" width="100" height="40" as="geometry" />
        </mxCell>
        <mxCell id="cHkOREMolEhfn1Rwg13c-84" style="edgeStyle=orthogonalEdgeStyle;rounded=0;orthogonalLoop=1;jettySize=auto;html=1;exitX=1;exitY=0.5;exitDx=0;exitDy=0;entryX=0.006;entryY=0.141;entryDx=0;entryDy=0;entryPerimeter=0;" edge="1" parent="1" source="cHkOREMolEhfn1Rwg13c-65" target="cHkOREMolEhfn1Rwg13c-81">
          <mxGeometry relative="1" as="geometry" />
        </mxCell>
      </root>
    </mxGraphModel>
  </diagram>
</mxfile>
